<?xml version="1.0" encoding="utf-8"?>
<!-- Generator: Adobe Illustrator 26.1.0, SVG Export Plug-In . SVG Version: 6.00 Build 0)  -->
<svg version="1.1" id="Layer_1" xmlns="http://www.w3.org/2000/svg" xmlns:xlink="http://www.w3.org/1999/xlink" x="0px" y="0px"
	 viewBox="0 0 341.98 145.53" style="enable-background:new 0 0 341.98 145.53;" xml:space="preserve">
<style type="text/css">
	.st0{clip-path:url(#SVGID_00000013891787336518247080000005393242086887830405_);}
	.st1{display:none;}
	.st2{display:inline;fill:#FFFFFF;}
	.st3{display:inline;fill:#FEFEFE;}
	.st4{display:inline;fill:#FDFDFD;}
	.st5{display:inline;fill:#FCFCFC;}
	.st6{display:inline;fill:#FBFBFB;}
	.st7{display:inline;fill:#FAFAFA;}
	.st8{display:inline;fill:#F9F9F9;}
	.st9{display:inline;fill:#F8F8F8;}
	.st10{display:inline;fill:#F7F7F7;}
	.st11{display:inline;fill:#F6F6F6;}
	.st12{display:inline;fill:#F5F5F5;}
	.st13{display:inline;fill:#F4F4F4;}
	.st14{display:inline;fill:#F3F3F3;}
	.st15{display:inline;fill:#F2F2F2;}
	.st16{display:inline;fill:#F1F1F1;}
	.st17{display:inline;fill:#F0F0F0;}
	.st18{display:inline;fill:#EFEFEF;}
	.st19{display:inline;fill:#EEEEEE;}
	.st20{display:inline;fill:#EDEDED;}
	.st21{display:inline;fill:#ECECEC;}
	.st22{display:inline;fill:#EBEBEB;}
	.st23{display:inline;fill:#EAEAEA;}
	.st24{display:inline;fill:#E9E9E9;}
	.st25{display:inline;fill:#E8E8E8;}
	.st26{display:inline;fill:#E7E7E7;}
	.st27{display:inline;fill:#E6E6E6;}
	.st28{display:inline;fill:#E5E5E5;}
	.st29{display:inline;fill:#E4E4E4;}
	.st30{display:inline;fill:#E3E3E3;}
	.st31{display:inline;fill:#E2E2E2;}
	.st32{display:inline;fill:#E1E1E1;}
	.st33{display:inline;fill:#E0E0E0;}
	.st34{display:inline;fill:#DFDFDF;}
	.st35{display:inline;fill:#DEDEDE;}
	.st36{display:inline;fill:#DDDDDD;}
	.st37{display:inline;fill:#DCDCDC;}
	.st38{display:inline;fill:#DBDBDB;}
	.st39{display:inline;fill:#DADADA;}
	.st40{fill:#E00000;}
</style>
<g>
	<g>
		<defs>
			<rect id="SVGID_1_" x="-60.91" y="-91.04" width="432" height="288"/>
		</defs>
		<use xlink:href="#SVGID_1_"  style="overflow:visible;fill:#F5F5F5;"/>
		<clipPath id="SVGID_00000141426345896475462920000005822849127902067116_">
			<use xlink:href="#SVGID_1_"  style="overflow:visible;"/>
		</clipPath>
		<g style="clip-path:url(#SVGID_00000141426345896475462920000005822849127902067116_);">
			<g class="st1">
				<path class="st2" d="M390.85,95.76H92.73l-2.51-11.28c-0.14-0.65-0.74-1.08-1.4-1.05c-0.66,0.04-1.2,0.55-1.26,1.21l-4.02,39.67
					l-3.99-64.58c-0.04-0.71-0.62-1.26-1.33-1.27c-0.01,0-0.01,0-0.02,0c-0.7,0-1.28,0.54-1.34,1.23l-4.31,50.59L69.7,86.24
					c-0.08-0.69-0.65-1.16-1.36-1.19c-0.69,0.01-1.26,0.54-1.33,1.22l-1.32,14.26l-1.51-3.91c-0.2-0.52-0.7-0.86-1.26-0.86h-85.47
					c-0.23,0-0.44,0.06-0.63,0.16c-6.01-9.98-9.51-20.66-6.9-30.56c4.57-17.32,20.47-23.97,34.19-22.88
					c12.29,0.98,25.33,8.48,26.77,23.04c0.07,0.69,0.65,1.22,1.34,1.22c0.69,0,1.27-0.53,1.34-1.22
					C34.71,54.09,43.79,45,56.71,42.38c10.29-2.09,25,0.39,32.58,14.28c5.24,9.59,4.65,15.44,4.64,15.49
					c-0.09,0.74,0.43,1.41,1.17,1.51c0.74,0.09,1.41-0.43,1.51-1.17c0.03-0.27,0.75-6.67-4.95-17.12
					c-6.82-12.49-20.75-18.63-35.49-15.63c-11.72,2.38-20.56,9.7-23.93,19.36C28.1,47.02,15.9,40.72,4.33,39.8
					c-14.85-1.19-32.05,6.05-37.02,24.88c-9.81,37.21,58.32,83.72,64.35,86.49c0.18,0.08,0.37,0.12,0.56,0.12
					c0.2,0,0.4-0.04,0.58-0.13c2.79-1.34,20.85-13.91,33.37-27.7c0.5-0.55,0.46-1.41-0.09-1.91c-0.55-0.5-1.41-0.46-1.91,0.09
					c-11.53,12.71-28.11,24.5-31.98,26.78c-4.51-2.43-21.73-14.31-36.87-29.53c-5.87-5.91-12.04-12.93-16.92-20.43H62l3.25,8.41
					c0.23,0.58,0.82,0.94,1.44,0.85c0.62-0.09,1.1-0.59,1.16-1.21l0.67-7.25l2.9,24.53c0.08,0.69,0.65,1.18,1.36,1.19
					c0.69-0.01,1.26-0.55,1.32-1.23l3.88-45.52L81.86,141c0.04,0.7,0.62,1.25,1.32,1.27c0.01,0,0.02,0,0.03,0
					c0.69,0,1.27-0.52,1.34-1.21l4.85-47.83l0.93,4.18c0.14,0.62,0.68,1.06,1.32,1.06h299.2c0.75,0,1.35-0.6,1.35-1.35
					S391.6,95.76,390.85,95.76z"/>
				<path class="st3" d="M391.55,95.07H93.43l-2.51-11.28c-0.14-0.65-0.75-1.09-1.4-1.05c-0.66,0.03-1.2,0.55-1.26,1.21l-4.02,39.67
					l-3.99-64.58c-0.04-0.71-0.62-1.26-1.33-1.27c-0.01,0-0.01,0-0.02,0c-0.7,0-1.28,0.54-1.34,1.23l-4.31,50.59L70.4,85.54
					c-0.08-0.69-0.65-1.16-1.36-1.19c-0.69,0.01-1.26,0.54-1.33,1.22l-1.32,14.26l-1.51-3.91c-0.2-0.52-0.7-0.86-1.26-0.86h-85.47
					c-0.23,0-0.44,0.06-0.63,0.16c-6.01-9.98-9.51-20.66-6.9-30.56C-24.81,47.35-8.92,40.7,4.81,41.79
					c12.29,0.98,25.33,8.48,26.77,23.04c0.07,0.69,0.65,1.22,1.34,1.22c0.69,0,1.27-0.53,1.34-1.22
					c1.13-11.44,10.22-20.52,23.14-23.15c10.29-2.09,25,0.39,32.58,14.28c5.24,9.59,4.65,15.44,4.64,15.49
					c-0.09,0.74,0.43,1.41,1.17,1.51c0.74,0.09,1.41-0.43,1.51-1.17c0.03-0.27,0.75-6.67-4.95-17.12
					c-6.82-12.49-20.75-18.63-35.49-15.63c-11.72,2.38-20.56,9.71-23.93,19.36C28.8,46.33,16.6,40.02,5.03,39.1
					c-14.85-1.19-32.05,6.05-37.02,24.88c-9.81,37.21,58.32,83.72,64.35,86.49c0.18,0.08,0.37,0.12,0.56,0.12
					c0.2,0,0.4-0.04,0.58-0.13c2.79-1.34,20.85-13.91,33.37-27.7c0.5-0.55,0.46-1.41-0.09-1.91c-0.55-0.5-1.41-0.46-1.91,0.09
					c-11.53,12.71-28.11,24.5-31.98,26.78c-4.51-2.43-21.73-14.31-36.87-29.53c-5.87-5.91-12.04-12.93-16.92-20.43H62.7l3.25,8.41
					c0.23,0.58,0.82,0.94,1.44,0.85c0.62-0.09,1.1-0.59,1.16-1.21l0.67-7.25l2.9,24.53c0.08,0.69,0.65,1.21,1.36,1.19
					c0.69-0.02,1.26-0.55,1.32-1.23l3.88-45.52l3.88,62.76c0.04,0.7,0.62,1.24,1.32,1.27c0.01,0,0.02,0,0.03,0
					c0.69,0,1.27-0.52,1.34-1.21l4.85-47.83l0.93,4.18c0.14,0.62,0.68,1.06,1.32,1.06h299.2c0.75,0,1.35-0.6,1.35-1.35
					C392.9,95.67,392.3,95.07,391.55,95.07z"/>
				<path class="st3" d="M392.25,94.37H94.13l-2.51-11.28c-0.14-0.65-0.75-1.09-1.4-1.05c-0.66,0.03-1.2,0.55-1.26,1.21l-4.02,39.67
					l-3.99-64.58c-0.04-0.71-0.62-1.26-1.33-1.27c-0.01,0-0.01,0-0.02,0c-0.7,0-1.28,0.54-1.34,1.23l-4.31,50.59L71.1,84.84
					c-0.08-0.69-0.65-1.16-1.36-1.19c-0.69,0.01-1.26,0.54-1.33,1.22l-1.32,14.26l-1.51-3.91c-0.2-0.52-0.7-0.86-1.26-0.86h-85.47
					c-0.23,0-0.44,0.06-0.63,0.16c-6.01-9.98-9.51-20.66-6.9-30.56C-24.12,46.65-8.22,40,5.51,41.09
					c12.29,0.98,25.33,8.48,26.77,23.04c0.07,0.69,0.65,1.22,1.34,1.22c0.69,0,1.27-0.53,1.34-1.22
					C36.1,52.7,45.18,43.61,58.1,40.98c10.29-2.09,25,0.39,32.58,14.28c5.24,9.59,4.65,15.44,4.64,15.49
					c-0.09,0.74,0.43,1.41,1.17,1.51c0.74,0.09,1.41-0.43,1.51-1.17c0.03-0.27,0.75-6.67-4.95-17.12
					c-6.82-12.49-20.75-18.63-35.49-15.63c-11.72,2.38-20.56,9.7-23.93,19.36C29.5,45.63,17.3,39.32,5.72,38.4
					c-14.85-1.19-32.05,6.05-37.02,24.88c-9.81,37.21,58.32,83.72,64.35,86.49c0.18,0.08,0.37,0.12,0.56,0.12
					c0.2,0,0.4-0.04,0.58-0.13c2.79-1.34,20.85-13.91,33.37-27.7c0.5-0.55,0.46-1.41-0.09-1.91c-0.55-0.5-1.41-0.46-1.91,0.09
					c-11.53,12.71-28.11,24.5-31.98,26.78c-4.51-2.43-21.73-14.31-36.87-29.53c-5.87-5.91-12.04-12.93-16.92-20.43h83.59l3.25,8.41
					c0.23,0.58,0.82,0.94,1.44,0.85c0.62-0.09,1.1-0.59,1.16-1.21l0.67-7.25l2.9,24.53c0.08,0.69,0.65,1.21,1.36,1.19
					c0.69-0.02,1.26-0.55,1.32-1.23l3.88-45.52l3.88,62.76c0.04,0.7,0.62,1.24,1.32,1.27c0.01,0,0.02,0,0.03,0
					c0.69,0,1.27-0.52,1.34-1.21l4.85-47.83l0.93,4.18c0.14,0.62,0.68,1.06,1.32,1.06h299.2c0.75,0,1.35-0.6,1.35-1.35
					S392.99,94.37,392.25,94.37z"/>
				<path class="st4" d="M392.94,93.67H94.82l-2.51-11.28c-0.14-0.65-0.75-1.09-1.4-1.05c-0.66,0.03-1.2,0.55-1.26,1.21l-4.02,39.67
					l-3.99-64.58c-0.04-0.71-0.62-1.26-1.33-1.27c-0.01,0-0.01,0-0.02,0c-0.7,0-1.28,0.54-1.34,1.23l-4.31,50.59L71.8,84.15
					c-0.08-0.69-0.66-1.16-1.36-1.19c-0.69,0.01-1.26,0.54-1.33,1.22l-1.32,14.26l-1.51-3.91c-0.2-0.52-0.7-0.86-1.26-0.86h-85.47
					c-0.23,0-0.44,0.06-0.63,0.16c-6.01-9.98-9.51-20.66-6.9-30.56C-23.42,45.95-7.52,39.3,6.21,40.39
					c12.29,0.98,25.33,8.48,26.77,23.04c0.07,0.69,0.65,1.22,1.34,1.22c0.69,0,1.27-0.53,1.34-1.22C36.8,52,45.88,42.91,58.8,40.28
					c10.29-2.09,25,0.39,32.58,14.28c5.24,9.59,4.65,15.44,4.64,15.49c-0.09,0.74,0.43,1.41,1.17,1.51
					c0.74,0.09,1.41-0.43,1.51-1.17c0.03-0.27,0.75-6.67-4.95-17.12C86.93,40.78,73,34.64,58.26,37.64
					C46.54,40.02,37.71,47.34,34.34,57C30.19,44.93,18,38.63,6.42,37.7c-14.85-1.19-32.05,6.05-37.02,24.88
					c-9.81,37.21,58.32,83.72,64.35,86.49c0.18,0.08,0.37,0.12,0.56,0.12c0.2,0,0.4-0.04,0.58-0.13
					c2.79-1.34,20.85-13.91,33.37-27.7c0.5-0.55,0.46-1.41-0.09-1.91c-0.55-0.5-1.41-0.46-1.91,0.09
					c-11.53,12.71-28.11,24.5-31.98,26.78c-4.51-2.43-21.73-14.31-36.87-29.53c-5.87-5.91-12.04-12.93-16.92-20.43h83.59l3.25,8.41
					c0.23,0.58,0.82,0.94,1.44,0.85c0.62-0.09,1.1-0.59,1.16-1.21l0.67-7.25l2.9,24.53c0.08,0.69,0.65,1.21,1.36,1.19
					c0.69-0.02,1.26-0.55,1.32-1.23l3.88-45.52l3.88,62.76c0.04,0.7,0.62,1.24,1.32,1.27c0.01,0,0.02,0,0.03,0
					c0.69,0,1.27-0.52,1.34-1.21l4.85-47.83l0.93,4.18c0.14,0.62,0.68,1.06,1.32,1.06h299.2c0.75,0,1.35-0.6,1.35-1.35
					C394.29,94.27,393.69,93.67,392.94,93.67z"/>
				<path class="st5" d="M393.64,92.97H95.52L93.01,81.7c-0.14-0.65-0.75-1.09-1.4-1.05c-0.66,0.03-1.2,0.55-1.26,1.21l-4.02,39.67
					l-3.99-64.58c-0.04-0.71-0.62-1.26-1.33-1.27c-0.01,0-0.01,0-0.02,0c-0.7,0-1.28,0.54-1.34,1.23l-4.31,50.59l-2.84-24.06
					c-0.08-0.69-0.65-1.16-1.36-1.19c-0.69,0.01-1.26,0.54-1.33,1.22l-1.32,14.26l-1.51-3.91c-0.2-0.52-0.7-0.86-1.26-0.86h-85.47
					c-0.23,0-0.44,0.06-0.63,0.16c-6.01-9.98-9.51-20.66-6.9-30.56C-22.72,45.25-6.82,38.6,6.9,39.7
					c12.29,0.98,25.33,8.48,26.77,23.04c0.07,0.69,0.65,1.22,1.34,1.22c0.69,0,1.27-0.53,1.34-1.22
					C37.5,51.3,46.58,42.21,59.5,39.59c10.29-2.09,25,0.39,32.58,14.28c5.24,9.59,4.65,15.44,4.64,15.49
					c-0.09,0.74,0.43,1.41,1.17,1.51c0.74,0.09,1.41-0.43,1.51-1.17c0.03-0.27,0.75-6.67-4.95-17.12
					C87.63,40.08,73.7,33.95,58.96,36.94c-11.72,2.38-20.56,9.7-23.93,19.36c-4.14-12.07-16.34-18.38-27.92-19.3
					c-14.85-1.19-32.05,6.05-37.02,24.88c-9.81,37.21,58.32,83.72,64.35,86.49c0.18,0.08,0.37,0.12,0.56,0.12
					c0.2,0,0.4-0.04,0.58-0.13c2.79-1.34,20.85-13.91,33.37-27.7c0.5-0.55,0.46-1.41-0.09-1.91c-0.55-0.5-1.41-0.46-1.91,0.09
					c-11.53,12.71-28.11,24.5-31.98,26.78c-4.51-2.43-21.73-14.31-36.87-29.53c-5.87-5.91-12.04-12.93-16.92-20.43h83.59l3.25,8.41
					c0.23,0.58,0.82,0.94,1.44,0.85c0.62-0.09,1.1-0.59,1.16-1.21l0.67-7.25l2.9,24.53c0.08,0.69,0.65,1.21,1.36,1.19
					c0.69-0.02,1.26-0.55,1.32-1.23l3.88-45.52l3.88,62.76c0.04,0.7,0.62,1.24,1.32,1.27c0.01,0,0.02,0,0.03,0
					c0.69,0,1.27-0.52,1.34-1.21l4.85-47.83l0.93,4.18c0.14,0.62,0.68,1.06,1.32,1.06h299.2c0.75,0,1.35-0.6,1.35-1.35
					C394.99,93.58,394.39,92.97,393.64,92.97z"/>
				<path class="st6" d="M394.34,92.28H96.22L93.7,81c-0.14-0.65-0.75-1.09-1.4-1.05c-0.66,0.03-1.2,0.55-1.26,1.21l-4.02,39.67
					l-3.99-64.58c-0.04-0.71-0.62-1.26-1.33-1.27c-0.01,0-0.01,0-0.02,0c-0.7,0-1.28,0.54-1.34,1.23l-4.31,50.59l-2.84-24.06
					c-0.08-0.69-0.65-1.16-1.36-1.19c-0.69,0.01-1.26,0.54-1.33,1.22l-1.32,14.26l-1.51-3.91c-0.2-0.52-0.7-0.86-1.26-0.86h-85.47
					c-0.23,0-0.44,0.06-0.63,0.16c-6.01-9.98-9.51-20.66-6.9-30.56C-22.02,44.56-6.12,37.91,7.6,39
					c12.29,0.98,25.33,8.48,26.77,23.04c0.07,0.69,0.65,1.22,1.34,1.22c0.69,0,1.27-0.53,1.34-1.22
					C38.19,50.6,47.28,41.52,60.2,38.89c10.29-2.09,25,0.39,32.58,14.28c5.24,9.59,4.65,15.44,4.64,15.49
					c-0.09,0.74,0.43,1.41,1.17,1.51c0.74,0.09,1.41-0.43,1.51-1.17c0.03-0.27,0.75-6.67-4.95-17.12
					C88.33,39.38,74.4,33.25,59.66,36.24c-11.72,2.38-20.56,9.7-23.93,19.36c-4.14-12.07-16.34-18.38-27.92-19.3
					c-14.85-1.19-32.05,6.05-37.02,24.88c-9.81,37.21,58.32,83.72,64.35,86.49c0.18,0.08,0.37,0.12,0.56,0.12
					c0.2,0,0.4-0.04,0.58-0.13c2.79-1.34,20.85-13.91,33.37-27.7c0.5-0.55,0.46-1.41-0.09-1.91c-0.55-0.5-1.41-0.46-1.91,0.09
					c-11.53,12.71-28.11,24.5-31.98,26.78c-4.51-2.43-21.73-14.31-36.87-29.53c-5.87-5.91-12.04-12.93-16.92-20.43h83.59l3.25,8.41
					c0.23,0.58,0.82,0.94,1.44,0.85c0.62-0.09,1.1-0.59,1.16-1.21l0.67-7.25l2.9,24.53c0.08,0.69,0.65,1.21,1.36,1.19
					c0.69-0.02,1.26-0.55,1.32-1.23l3.88-45.52l3.88,62.76c0.04,0.7,0.62,1.24,1.32,1.27c0.01,0,0.02,0,0.03,0
					c0.69,0,1.27-0.52,1.34-1.21l4.85-47.83l0.93,4.18c0.14,0.62,0.68,1.06,1.32,1.06h299.2c0.75,0,1.35-0.6,1.35-1.35
					C395.69,92.88,395.09,92.28,394.34,92.28z"/>
				<path class="st6" d="M395.04,91.58H96.92L94.4,80.3c-0.14-0.65-0.75-1.09-1.4-1.05c-0.66,0.03-1.2,0.55-1.26,1.21l-4.02,39.67
					l-3.99-64.58c-0.04-0.71-0.62-1.26-1.33-1.27c-0.01,0-0.01,0-0.02,0c-0.7,0-1.28,0.54-1.34,1.23l-4.31,50.59l-2.84-24.06
					c-0.08-0.69-0.65-1.16-1.36-1.19c-0.69,0.01-1.26,0.54-1.33,1.22l-1.32,14.26l-1.51-3.91c-0.2-0.52-0.7-0.86-1.26-0.86h-85.47
					c-0.23,0-0.44,0.06-0.63,0.16c-6.01-9.98-9.51-20.66-6.9-30.56C-21.32,43.86-5.43,37.21,8.3,38.3
					c12.29,0.98,25.33,8.48,26.77,23.04c0.07,0.69,0.65,1.22,1.34,1.22c0.69,0,1.27-0.53,1.34-1.22
					c1.13-11.44,10.22-20.52,23.14-23.15c10.29-2.09,25,0.39,32.58,14.28c5.24,9.59,4.65,15.44,4.64,15.49
					c-0.09,0.74,0.43,1.41,1.17,1.51c0.74,0.09,1.41-0.43,1.51-1.17c0.03-0.27,0.75-6.67-4.95-17.12
					C89.02,38.69,75.1,32.55,60.36,35.55c-11.72,2.38-20.56,9.71-23.93,19.36c-4.14-12.07-16.34-18.38-27.92-19.3
					c-14.85-1.19-32.05,6.05-37.02,24.88c-9.81,37.21,58.32,83.72,64.35,86.49c0.18,0.08,0.37,0.12,0.56,0.12
					c0.2,0,0.4-0.04,0.58-0.13c2.79-1.34,20.85-13.91,33.37-27.7c0.5-0.55,0.46-1.41-0.09-1.91c-0.55-0.5-1.41-0.46-1.91,0.09
					c-11.53,12.71-28.11,24.5-31.98,26.78c-4.51-2.43-21.73-14.31-36.87-29.53c-5.87-5.91-12.04-12.93-16.92-20.43h83.59l3.25,8.41
					c0.23,0.58,0.82,0.94,1.44,0.85c0.62-0.09,1.1-0.59,1.16-1.21l0.67-7.25l2.9,24.53c0.08,0.69,0.65,1.21,1.36,1.19
					c0.69-0.02,1.26-0.55,1.32-1.23l3.88-45.52l3.88,62.76c0.04,0.7,0.62,1.24,1.32,1.27c0.01,0,0.02,0,0.03,0
					c0.69,0,1.27-0.52,1.34-1.21l4.85-47.83l0.93,4.18c0.14,0.62,0.68,1.06,1.32,1.06h299.2c0.75,0,1.35-0.6,1.35-1.35
					S395.78,91.58,395.04,91.58z"/>
				<path class="st7" d="M395.74,90.88H97.61L95.1,79.6c-0.14-0.65-0.75-1.09-1.4-1.05c-0.66,0.03-1.2,0.55-1.26,1.21l-4.02,39.67
					l-3.99-64.58c-0.04-0.71-0.62-1.26-1.33-1.27c-0.01,0-0.01,0-0.02,0c-0.7,0-1.28,0.54-1.34,1.23l-4.31,50.59l-2.84-24.06
					c-0.08-0.69-0.65-1.16-1.36-1.19c-0.69,0.01-1.26,0.54-1.33,1.22l-1.32,14.26l-1.51-3.91c-0.2-0.52-0.7-0.86-1.26-0.86h-85.47
					c-0.23,0-0.44,0.06-0.63,0.16c-6.01-9.98-9.51-20.66-6.9-30.56C-20.63,43.16-4.73,36.51,9,37.6
					c12.29,0.98,25.33,8.48,26.77,23.04c0.07,0.69,0.65,1.22,1.34,1.22c0.69,0,1.27-0.53,1.34-1.22
					c1.13-11.44,10.22-20.52,23.14-23.15c10.29-2.09,25,0.39,32.58,14.28c5.24,9.59,4.65,15.44,4.64,15.49
					c-0.09,0.74,0.43,1.41,1.17,1.51c0.74,0.09,1.41-0.43,1.51-1.17c0.03-0.27,0.75-6.67-4.95-17.12
					c-6.82-12.49-20.75-18.63-35.49-15.63c-11.72,2.38-20.56,9.7-23.93,19.36c-4.14-12.07-16.34-18.38-27.92-19.3
					C-5.64,33.72-22.84,40.97-27.8,59.8c-9.81,37.21,58.32,83.72,64.35,86.49c0.18,0.08,0.37,0.12,0.56,0.12
					c0.2,0,0.4-0.04,0.58-0.13c2.79-1.34,20.85-13.91,33.37-27.7c0.5-0.55,0.46-1.41-0.09-1.91c-0.55-0.5-1.41-0.46-1.91,0.09
					c-11.53,12.71-28.11,24.5-31.98,26.78c-4.51-2.43-21.73-14.31-36.87-29.53c-5.87-5.91-12.04-12.93-16.92-20.43h83.59l3.25,8.41
					c0.23,0.58,0.82,0.94,1.44,0.85c0.62-0.09,1.1-0.59,1.16-1.21l0.67-7.25l2.9,24.53c0.08,0.69,0.65,1.21,1.36,1.19
					c0.69-0.02,1.26-0.55,1.32-1.23l3.88-45.52l3.88,62.76c0.04,0.7,0.62,1.24,1.32,1.27c0.01,0,0.02,0,0.03,0
					c0.69,0,1.27-0.52,1.34-1.21l4.85-47.83l0.93,4.18c0.14,0.62,0.68,1.06,1.32,1.06h299.2c0.75,0,1.35-0.6,1.35-1.35
					S396.48,90.88,395.74,90.88z"/>
				<path class="st8" d="M396.43,90.18H98.31L95.8,78.91c-0.14-0.65-0.75-1.09-1.4-1.05c-0.66,0.03-1.2,0.55-1.26,1.21l-4.02,39.67
					l-3.99-64.58c-0.04-0.71-0.62-1.26-1.33-1.27c-0.01,0-0.01,0-0.02,0c-0.7,0-1.28,0.54-1.34,1.23l-4.31,50.59l-2.84-24.06
					c-0.08-0.69-0.66-1.16-1.36-1.19c-0.69,0.01-1.26,0.54-1.33,1.22l-1.32,14.26l-1.51-3.91c-0.2-0.52-0.7-0.86-1.26-0.86h-85.47
					c-0.23,0-0.44,0.06-0.63,0.16c-6.01-9.98-9.51-20.66-6.9-30.56C-19.93,42.46-4.03,35.81,9.7,36.91
					c12.29,0.98,25.33,8.48,26.77,23.04c0.07,0.69,0.65,1.22,1.34,1.22c0.69,0,1.27-0.53,1.34-1.22
					c1.13-11.44,10.22-20.52,23.14-23.15c10.29-2.09,25,0.39,32.58,14.28c5.24,9.59,4.65,15.44,4.64,15.49
					c-0.09,0.74,0.43,1.41,1.17,1.51c0.74,0.09,1.41-0.43,1.51-1.17c0.03-0.27,0.75-6.67-4.95-17.12
					c-6.82-12.49-20.75-18.63-35.49-15.63c-11.72,2.38-20.56,9.7-23.93,19.36c-4.14-12.07-16.34-18.38-27.92-19.3
					c-14.85-1.19-32.05,6.05-37.02,24.88c-9.81,37.21,58.32,83.72,64.35,86.49c0.18,0.08,0.37,0.12,0.56,0.12
					c0.2,0,0.4-0.04,0.58-0.13c2.79-1.34,20.85-13.91,33.37-27.7c0.5-0.55,0.46-1.41-0.09-1.91c-0.55-0.5-1.41-0.46-1.91,0.09
					c-11.53,12.71-28.11,24.5-31.98,26.78c-4.51-2.43-21.73-14.31-36.87-29.53c-5.87-5.91-12.04-12.93-16.92-20.43h83.59l3.25,8.41
					c0.23,0.58,0.82,0.94,1.44,0.85c0.62-0.09,1.1-0.59,1.16-1.21l0.67-7.25l2.9,24.53c0.08,0.69,0.65,1.21,1.36,1.19
					c0.69-0.02,1.26-0.55,1.32-1.23l3.88-45.52l3.88,62.76c0.04,0.7,0.62,1.24,1.32,1.27c0.01,0,0.02,0,0.03,0
					c0.69,0,1.27-0.52,1.34-1.21l4.85-47.83l0.93,4.18c0.14,0.62,0.68,1.06,1.32,1.06h299.2c0.75,0,1.35-0.6,1.35-1.35
					C397.78,90.79,397.18,90.18,396.43,90.18z"/>
				<path class="st9" d="M397.13,89.48H99.01L96.5,78.21c-0.14-0.65-0.75-1.09-1.4-1.05c-0.66,0.03-1.2,0.55-1.26,1.21l-4.02,39.67
					l-3.99-64.58c-0.04-0.71-0.62-1.26-1.33-1.27c-0.01,0-0.01,0-0.02,0c-0.7,0-1.28,0.54-1.34,1.23l-4.31,50.59l-2.84-24.06
					c-0.08-0.69-0.65-1.16-1.36-1.19c-0.69,0.01-1.26,0.54-1.33,1.22l-1.32,14.26l-1.51-3.91c-0.2-0.52-0.7-0.86-1.26-0.86h-85.47
					c-0.23,0-0.44,0.06-0.63,0.16c-6.01-9.98-9.51-20.66-6.9-30.56c4.57-17.32,20.47-23.97,34.19-22.88
					c12.29,0.98,25.33,8.48,26.77,23.04c0.07,0.69,0.65,1.22,1.34,1.22c0.69,0,1.27-0.53,1.34-1.22
					c1.13-11.44,10.22-20.52,23.14-23.15c10.29-2.09,25,0.39,32.58,14.28c5.24,9.59,4.65,15.44,4.64,15.49
					c-0.09,0.74,0.43,1.41,1.17,1.51c0.74,0.09,1.41-0.43,1.51-1.17c0.03-0.27,0.75-6.67-4.95-17.12
					c-6.82-12.49-20.75-18.63-35.49-15.63c-11.72,2.38-20.56,9.7-23.93,19.36c-4.14-12.07-16.34-18.38-27.92-19.3
					c-14.85-1.19-32.05,6.05-37.02,24.88c-9.81,37.21,58.32,83.72,64.35,86.49c0.18,0.08,0.37,0.12,0.56,0.12
					c0.2,0,0.4-0.04,0.58-0.13c2.79-1.34,20.85-13.91,33.37-27.7c0.5-0.55,0.46-1.41-0.09-1.91c-0.55-0.5-1.41-0.46-1.91,0.09
					c-11.53,12.71-28.11,24.5-31.98,26.78c-4.51-2.43-21.73-14.31-36.87-29.53c-5.87-5.91-12.04-12.93-16.92-20.43h83.59l3.25,8.41
					c0.23,0.58,0.82,0.94,1.44,0.85c0.62-0.09,1.1-0.59,1.16-1.21l0.67-7.25l2.9,24.53c0.08,0.69,0.65,1.21,1.36,1.19
					c0.69-0.02,1.26-0.55,1.32-1.23l3.88-45.52l3.88,62.76c0.04,0.7,0.62,1.24,1.32,1.27c0.01,0,0.02,0,0.03,0
					c0.69,0,1.27-0.52,1.34-1.21l4.85-47.83l0.93,4.18c0.14,0.62,0.68,1.06,1.32,1.06h299.2c0.75,0,1.35-0.6,1.35-1.35
					C398.48,90.09,397.88,89.48,397.13,89.48z"/>
				<path class="st9" d="M397.83,88.79H99.71l-2.51-11.28c-0.14-0.65-0.75-1.09-1.4-1.05c-0.66,0.03-1.2,0.55-1.26,1.21l-4.02,39.67
					l-3.99-64.58c-0.04-0.71-0.62-1.26-1.33-1.27c-0.01,0-0.01,0-0.02,0c-0.7,0-1.28,0.54-1.34,1.23l-4.31,50.59l-2.84-24.06
					c-0.08-0.69-0.65-1.16-1.36-1.19c-0.69,0.01-1.26,0.54-1.33,1.22l-1.32,14.26l-1.51-3.91c-0.2-0.52-0.7-0.86-1.26-0.86h-85.47
					c-0.23,0-0.44,0.06-0.63,0.16c-6.01-9.98-9.51-20.66-6.9-30.56c4.57-17.32,20.47-23.97,34.19-22.88
					c12.29,0.98,25.33,8.48,26.77,23.04c0.07,0.69,0.65,1.22,1.34,1.22c0.69,0,1.27-0.53,1.34-1.22
					c1.13-11.44,10.22-20.52,23.14-23.15c10.29-2.09,25,0.39,32.58,14.28c5.24,9.59,4.65,15.44,4.64,15.49
					c-0.09,0.74,0.43,1.41,1.17,1.51c0.74,0.09,1.41-0.43,1.51-1.17c0.03-0.27,0.75-6.67-4.95-17.12
					C91.81,35.9,77.89,29.76,63.15,32.76c-11.72,2.38-20.56,9.7-23.93,19.36c-4.14-12.07-16.34-18.38-27.92-19.3
					c-14.85-1.19-32.05,6.05-37.02,24.88c-9.81,37.21,58.32,83.72,64.35,86.49c0.18,0.08,0.37,0.12,0.56,0.12
					c0.2,0,0.4-0.04,0.58-0.13c2.79-1.34,20.85-13.91,33.37-27.7c0.5-0.55,0.46-1.41-0.09-1.91c-0.55-0.5-1.41-0.46-1.91,0.09
					c-11.53,12.71-28.11,24.5-31.98,26.78c-4.51-2.43-21.73-14.31-36.87-29.53c-5.87-5.91-12.04-12.93-16.92-20.43h83.59l3.25,8.41
					c0.23,0.58,0.82,0.94,1.44,0.85c0.62-0.09,1.1-0.59,1.16-1.21l0.67-7.25l2.9,24.53c0.08,0.69,0.65,1.21,1.36,1.19
					c0.69-0.02,1.26-0.55,1.32-1.23l3.88-45.52l3.88,62.76c0.04,0.7,0.62,1.24,1.32,1.27c0.01,0,0.02,0,0.03,0
					c0.69,0,1.27-0.52,1.34-1.21l4.85-47.83l0.93,4.18c0.14,0.62,0.68,1.06,1.32,1.06h299.2c0.75,0,1.35-0.6,1.35-1.35
					S398.57,88.79,397.83,88.79z"/>
				<path class="st10" d="M398.53,88.09H100.4l-2.51-11.28c-0.14-0.65-0.75-1.09-1.4-1.05c-0.66,0.03-1.2,0.55-1.26,1.21
					l-4.02,39.67l-3.99-64.58c-0.04-0.71-0.62-1.26-1.33-1.27c-0.01,0-0.01,0-0.02,0c-0.7,0-1.28,0.54-1.34,1.23l-4.31,50.59
					l-2.84-24.06c-0.08-0.69-0.65-1.16-1.36-1.19c-0.69,0.01-1.26,0.54-1.33,1.22l-1.32,14.26l-1.51-3.91
					c-0.2-0.52-0.7-0.86-1.26-0.86h-85.47c-0.23,0-0.44,0.06-0.63,0.16c-6.01-9.98-9.51-20.66-6.9-30.56
					c4.57-17.32,20.47-23.97,34.19-22.88c12.29,0.98,25.33,8.48,26.77,23.04c0.07,0.69,0.65,1.22,1.34,1.22
					c0.69,0,1.27-0.53,1.34-1.22c1.13-11.44,10.22-20.52,23.14-23.15c10.29-2.09,25,0.39,32.58,14.28
					c5.24,9.59,4.65,15.44,4.64,15.49c-0.09,0.74,0.43,1.41,1.17,1.51c0.74,0.09,1.41-0.43,1.51-1.17
					c0.03-0.27,0.75-6.67-4.95-17.12C92.51,35.2,78.58,29.06,63.84,32.06c-11.72,2.38-20.56,9.7-23.93,19.36
					C35.77,39.35,23.58,33.05,12,32.12c-14.85-1.19-32.05,6.05-37.02,24.88c-9.81,37.21,58.32,83.72,64.35,86.49
					c0.18,0.08,0.37,0.12,0.56,0.12c0.2,0,0.4-0.04,0.58-0.13c2.79-1.34,20.85-13.91,33.37-27.7c0.5-0.55,0.46-1.41-0.09-1.91
					c-0.55-0.5-1.41-0.46-1.91,0.09c-11.53,12.71-28.11,24.5-31.98,26.78c-4.51-2.43-21.73-14.31-36.87-29.53
					c-5.87-5.91-12.04-12.93-16.92-20.43h83.59l3.25,8.41c0.23,0.58,0.82,0.94,1.44,0.85c0.62-0.09,1.1-0.59,1.16-1.21l0.67-7.25
					l2.9,24.53c0.08,0.69,0.65,1.21,1.36,1.19c0.69-0.02,1.26-0.55,1.32-1.23l3.88-45.52l3.88,62.76c0.04,0.7,0.62,1.24,1.32,1.27
					c0.01,0,0.02,0,0.03,0c0.69,0,1.27-0.52,1.34-1.21l4.85-47.83L98,89.73c0.14,0.62,0.68,1.06,1.32,1.06h299.2
					c0.75,0,1.35-0.6,1.35-1.35S399.27,88.09,398.53,88.09z"/>
				<path class="st11" d="M399.22,87.39H101.1l-2.51-11.28c-0.14-0.65-0.75-1.09-1.4-1.05c-0.66,0.03-1.2,0.55-1.26,1.21
					l-4.02,39.67l-3.99-64.58c-0.04-0.71-0.62-1.26-1.33-1.27c-0.01,0-0.01,0-0.02,0c-0.7,0-1.28,0.54-1.34,1.23l-4.31,50.59
					l-2.84-24.06c-0.08-0.69-0.65-1.16-1.36-1.19c-0.69,0.01-1.26,0.54-1.33,1.22l-1.32,14.26l-1.51-3.91
					c-0.2-0.52-0.7-0.86-1.26-0.86h-85.47c-0.23,0-0.44,0.06-0.63,0.16c-6.01-9.98-9.51-20.66-6.9-30.56
					c4.57-17.32,20.47-23.97,34.19-22.88c12.29,0.98,25.33,8.48,26.77,23.04c0.07,0.69,0.65,1.22,1.34,1.22
					c0.69,0,1.27-0.53,1.34-1.22c1.13-11.44,10.22-20.52,23.14-23.15c10.29-2.09,25,0.39,32.58,14.28
					c5.24,9.59,4.65,15.44,4.64,15.49c-0.09,0.74,0.43,1.41,1.17,1.51c0.74,0.09,1.41-0.43,1.51-1.17
					c0.03-0.27,0.75-6.67-4.95-17.12C93.21,34.5,79.28,28.37,64.54,31.36c-11.72,2.38-20.56,9.7-23.93,19.36
					c-4.14-12.07-16.34-18.38-27.92-19.3c-14.85-1.19-32.05,6.05-37.02,24.88C-34.13,93.52,34,140.03,40.04,142.8
					c0.18,0.08,0.37,0.12,0.56,0.12c0.2,0,0.4-0.04,0.58-0.13c2.79-1.34,20.85-13.91,33.37-27.7c0.5-0.55,0.46-1.41-0.09-1.91
					c-0.55-0.5-1.41-0.46-1.91,0.09c-11.53,12.71-28.11,24.5-31.98,26.78c-4.51-2.43-21.73-14.31-36.87-29.53
					c-5.87-5.91-12.04-12.93-16.92-20.43h83.59l3.25,8.41c0.23,0.58,0.82,0.94,1.44,0.85c0.62-0.09,1.1-0.59,1.16-1.21l0.67-7.25
					l2.9,24.53c0.08,0.69,0.65,1.21,1.36,1.19c0.69-0.02,1.26-0.55,1.32-1.23l3.88-45.52l3.88,62.76c0.04,0.7,0.62,1.24,1.32,1.27
					c0.01,0,0.02,0,0.03,0c0.69,0,1.27-0.52,1.34-1.21l4.85-47.83l0.93,4.18c0.14,0.62,0.68,1.06,1.32,1.06h299.2
					c0.75,0,1.35-0.6,1.35-1.35C400.57,88,399.97,87.39,399.22,87.39z"/>
				<path class="st11" d="M399.92,86.69H101.8l-2.51-11.28c-0.14-0.65-0.75-1.09-1.4-1.05c-0.66,0.03-1.2,0.55-1.26,1.21
					l-4.02,39.67l-3.99-64.58c-0.04-0.71-0.62-1.26-1.33-1.27c-0.01,0-0.01,0-0.02,0c-0.7,0-1.28,0.54-1.34,1.23l-4.31,50.59
					l-2.84-24.06c-0.08-0.69-0.66-1.16-1.36-1.19c-0.69,0.01-1.26,0.54-1.33,1.22l-1.32,14.26l-1.51-3.91
					c-0.2-0.52-0.7-0.86-1.26-0.86h-85.47c-0.23,0-0.44,0.06-0.63,0.16c-6.01-9.98-9.51-20.66-6.9-30.56
					c4.57-17.32,20.47-23.97,34.19-22.88c12.29,0.98,25.33,8.48,26.77,23.04c0.07,0.69,0.65,1.22,1.34,1.22
					c0.69,0,1.27-0.53,1.34-1.22c1.13-11.44,10.22-20.52,23.14-23.15c10.29-2.09,25,0.39,32.58,14.28
					c5.24,9.59,4.65,15.44,4.64,15.49c-0.09,0.74,0.43,1.41,1.17,1.51c0.74,0.09,1.41-0.43,1.51-1.17
					c0.03-0.27,0.75-6.67-4.95-17.12C93.91,33.8,79.98,27.67,65.24,30.66c-11.72,2.38-20.56,9.71-23.93,19.36
					c-4.14-12.07-16.34-18.38-27.92-19.3c-14.85-1.19-32.05,6.05-37.02,24.88c-9.81,37.21,58.32,83.72,64.35,86.49
					c0.18,0.08,0.37,0.12,0.56,0.12c0.2,0,0.4-0.04,0.58-0.13c2.79-1.34,20.85-13.91,33.37-27.7c0.5-0.55,0.46-1.41-0.09-1.91
					c-0.55-0.5-1.41-0.46-1.91,0.09c-11.53,12.71-28.11,24.5-31.98,26.78c-4.51-2.43-21.73-14.31-36.87-29.53
					c-5.87-5.91-12.04-12.93-16.92-20.43h83.59l3.25,8.41c0.23,0.58,0.82,0.94,1.44,0.85c0.62-0.09,1.1-0.59,1.16-1.21l0.67-7.25
					l2.9,24.53c0.08,0.69,0.65,1.21,1.36,1.19c0.69-0.02,1.26-0.55,1.32-1.23l3.88-45.52l3.88,62.76c0.04,0.7,0.62,1.24,1.32,1.27
					c0.01,0,0.02,0,0.03,0c0.69,0,1.27-0.52,1.34-1.21l4.85-47.83l0.93,4.18c0.14,0.62,0.68,1.06,1.32,1.06h299.2
					c0.75,0,1.35-0.6,1.35-1.35C401.27,87.3,400.67,86.69,399.92,86.69z"/>
				<path class="st12" d="M400.62,86H102.5l-2.51-11.28c-0.14-0.65-0.75-1.09-1.4-1.05c-0.66,0.03-1.2,0.55-1.26,1.21l-4.02,39.67
					l-3.99-64.58c-0.04-0.71-0.62-1.26-1.33-1.27c-0.01,0-0.01,0-0.02,0c-0.7,0-1.28,0.54-1.34,1.23l-4.31,50.59l-2.84-24.06
					c-0.08-0.69-0.65-1.16-1.36-1.19c-0.69,0.01-1.26,0.54-1.33,1.22l-1.32,14.26l-1.51-3.91c-0.2-0.52-0.7-0.86-1.26-0.86h-85.47
					c-0.23,0-0.44,0.06-0.63,0.16c-6.01-9.98-9.51-20.66-6.9-30.56c4.57-17.32,20.47-23.97,34.19-22.88
					c12.29,0.98,25.33,8.48,26.77,23.04c0.07,0.69,0.65,1.22,1.34,1.22c0.69,0,1.27-0.53,1.34-1.22
					c1.13-11.44,10.22-20.52,23.14-23.15c10.29-2.09,25,0.39,32.58,14.28c5.24,9.59,4.65,15.44,4.64,15.49
					c-0.09,0.74,0.43,1.41,1.17,1.51c0.74,0.09,1.41-0.43,1.51-1.17c0.03-0.27,0.75-6.67-4.95-17.12
					C94.6,33.11,80.68,26.97,65.94,29.97c-11.72,2.38-20.56,9.7-23.93,19.36c-4.14-12.07-16.34-18.38-27.92-19.3
					c-14.85-1.19-32.05,6.05-37.02,24.88c-9.81,37.21,58.32,83.72,64.35,86.49c0.18,0.08,0.37,0.12,0.56,0.12
					c0.2,0,0.4-0.04,0.58-0.13c2.79-1.34,20.85-13.91,33.37-27.7c0.5-0.55,0.46-1.41-0.09-1.91c-0.55-0.5-1.41-0.46-1.91,0.09
					c-11.53,12.71-28.11,24.5-31.98,26.78c-4.51-2.43-21.73-14.31-36.87-29.53C-0.77,103.22-6.94,96.2-11.82,88.7h83.59l3.25,8.41
					c0.23,0.58,0.82,0.94,1.44,0.85c0.62-0.09,1.1-0.59,1.16-1.21l0.67-7.25l2.9,24.53c0.08,0.69,0.65,1.21,1.36,1.19
					c0.69-0.02,1.26-0.55,1.32-1.23l3.88-45.52l3.88,62.76c0.04,0.7,0.62,1.24,1.32,1.27c0.01,0,0.02,0,0.03,0
					c0.69,0,1.27-0.52,1.34-1.21l4.85-47.83l0.93,4.18c0.14,0.62,0.68,1.06,1.32,1.06h299.2c0.75,0,1.35-0.6,1.35-1.35
					S401.36,86,400.62,86z"/>
				<path class="st13" d="M401.32,85.3H103.19l-2.51-11.28c-0.14-0.65-0.75-1.09-1.4-1.05c-0.66,0.03-1.2,0.55-1.26,1.21L94,113.85
					l-3.99-64.58c-0.04-0.71-0.62-1.26-1.33-1.27c-0.01,0-0.01,0-0.02,0c-0.7,0-1.28,0.54-1.34,1.23l-4.31,50.59l-2.84-24.06
					c-0.08-0.69-0.65-1.16-1.36-1.19c-0.69,0.01-1.26,0.54-1.33,1.22l-1.32,14.26l-1.51-3.91c-0.2-0.52-0.7-0.86-1.26-0.86h-85.47
					c-0.23,0-0.44,0.06-0.63,0.16c-6.01-9.98-9.51-20.66-6.9-30.56c4.57-17.32,20.47-23.97,34.19-22.88
					C26.86,33,39.91,40.51,41.35,55.06c0.07,0.69,0.65,1.22,1.34,1.22c0.69,0,1.27-0.53,1.34-1.22
					c1.13-11.44,10.22-20.52,23.14-23.15c10.29-2.09,25,0.39,32.58,14.28c5.24,9.59,4.65,15.44,4.64,15.49
					c-0.09,0.74,0.43,1.41,1.17,1.51c0.74,0.09,1.41-0.43,1.51-1.17c0.03-0.27,0.75-6.67-4.95-17.12
					C95.3,32.41,81.37,26.27,66.63,29.27c-11.72,2.38-20.56,9.7-23.93,19.36c-4.14-12.07-16.34-18.38-27.92-19.3
					c-14.85-1.19-32.05,6.05-37.02,24.88c-9.81,37.21,58.32,83.72,64.35,86.49c0.18,0.08,0.37,0.12,0.56,0.12
					c0.2,0,0.4-0.04,0.58-0.13c2.79-1.34,20.85-13.91,33.37-27.7c0.5-0.55,0.46-1.41-0.09-1.91c-0.55-0.5-1.41-0.46-1.91,0.09
					c-11.53,12.71-28.11,24.5-31.98,26.78c-4.51-2.43-21.73-14.31-36.87-29.53C-0.08,102.52-6.24,95.5-11.12,88h83.59l3.25,8.41
					c0.23,0.58,0.82,0.94,1.44,0.85c0.62-0.09,1.1-0.59,1.16-1.21l0.67-7.25l2.9,24.53c0.08,0.69,0.65,1.21,1.36,1.19
					c0.69-0.02,1.26-0.55,1.32-1.23l3.88-45.52l3.88,62.76c0.04,0.7,0.62,1.24,1.32,1.27c0.01,0,0.02,0,0.03,0
					c0.69,0,1.27-0.52,1.34-1.21l4.85-47.83l0.93,4.18c0.14,0.62,0.68,1.06,1.32,1.06h299.2c0.75,0,1.35-0.6,1.35-1.35
					S402.06,85.3,401.32,85.3z"/>
				<path class="st14" d="M402.01,84.6H103.89l-2.51-11.28c-0.14-0.65-0.75-1.09-1.4-1.05c-0.66,0.03-1.2,0.55-1.26,1.21
					l-4.02,39.67l-3.99-64.58c-0.04-0.71-0.62-1.26-1.33-1.27c-0.01,0-0.01,0-0.02,0c-0.7,0-1.28,0.54-1.34,1.23l-4.31,50.59
					l-2.84-24.06c-0.08-0.69-0.65-1.16-1.36-1.19c-0.69,0.01-1.26,0.54-1.33,1.22l-1.32,14.26l-1.51-3.91
					c-0.2-0.52-0.7-0.86-1.26-0.86h-85.47c-0.23,0-0.44,0.06-0.63,0.16c-6.01-9.98-9.51-20.66-6.9-30.56
					c4.57-17.32,20.47-23.97,34.19-22.88c12.29,0.98,25.33,8.48,26.77,23.04c0.07,0.69,0.65,1.22,1.34,1.22
					c0.69,0,1.27-0.53,1.34-1.22c1.13-11.44,10.22-20.52,23.14-23.15c10.29-2.09,25,0.39,32.58,14.28
					c5.24,9.59,4.65,15.44,4.64,15.49c-0.09,0.74,0.43,1.41,1.17,1.51c0.74,0.09,1.41-0.43,1.51-1.17
					c0.03-0.27,0.75-6.67-4.95-17.12C96,31.71,82.07,25.58,67.33,28.57c-11.72,2.38-20.56,9.7-23.93,19.36
					c-4.14-12.07-16.34-18.38-27.92-19.3c-14.85-1.19-32.05,6.05-37.02,24.88c-9.81,37.21,58.32,83.72,64.35,86.49
					c0.18,0.08,0.37,0.12,0.56,0.12c0.2,0,0.4-0.04,0.58-0.13c2.79-1.34,20.85-13.91,33.37-27.7c0.5-0.55,0.46-1.41-0.09-1.91
					c-0.55-0.5-1.41-0.46-1.91,0.09c-11.53,12.71-28.11,24.5-31.98,26.78c-4.51-2.43-21.73-14.31-36.87-29.53
					C0.62,101.83-5.54,94.8-10.43,87.3h83.59l3.25,8.41c0.23,0.58,0.82,0.94,1.44,0.85c0.62-0.09,1.1-0.59,1.16-1.21l0.67-7.25
					l2.9,24.53c0.08,0.69,0.65,1.21,1.36,1.19c0.69-0.02,1.26-0.55,1.32-1.23l3.88-45.52l3.88,62.76c0.04,0.7,0.62,1.24,1.32,1.27
					c0.01,0,0.02,0,0.03,0c0.69,0,1.27-0.52,1.34-1.21l4.85-47.83l0.93,4.18c0.14,0.62,0.68,1.06,1.32,1.06h299.2
					c0.75,0,1.35-0.6,1.35-1.35C403.36,85.21,402.76,84.6,402.01,84.6z"/>
				<path class="st14" d="M402.71,83.9H104.59l-2.51-11.28c-0.14-0.65-0.75-1.09-1.4-1.05c-0.66,0.03-1.2,0.55-1.26,1.21
					l-4.02,39.67L91.4,47.88c-0.04-0.71-0.62-1.26-1.33-1.27c-0.01,0-0.01,0-0.02,0c-0.7,0-1.28,0.54-1.34,1.23L84.4,98.44
					l-2.84-24.06c-0.08-0.69-0.65-1.16-1.36-1.19c-0.69,0.01-1.26,0.54-1.33,1.22l-1.32,14.26l-1.51-3.91
					c-0.2-0.52-0.7-0.86-1.26-0.86h-85.47c-0.23,0-0.44,0.06-0.63,0.16c-6.01-9.98-9.51-20.66-6.9-30.56
					c4.57-17.32,20.47-23.97,34.19-22.88c12.29,0.98,25.33,8.48,26.77,23.04c0.07,0.69,0.65,1.22,1.34,1.22
					c0.69,0,1.27-0.53,1.34-1.22c1.13-11.44,10.22-20.52,23.14-23.15c10.29-2.09,25,0.39,32.58,14.28
					c5.24,9.59,4.65,15.44,4.64,15.49c-0.09,0.74,0.43,1.41,1.17,1.51c0.74,0.09,1.41-0.43,1.51-1.17
					c0.03-0.27,0.75-6.67-4.95-17.12C96.7,31.01,82.77,24.88,68.03,27.87c-11.72,2.38-20.56,9.7-23.93,19.36
					c-4.14-12.07-16.34-18.38-27.92-19.3c-14.85-1.19-32.05,6.05-37.02,24.88c-9.81,37.21,58.32,83.72,64.35,86.49
					c0.18,0.08,0.37,0.12,0.56,0.12c0.2,0,0.4-0.04,0.58-0.13c2.79-1.34,20.85-13.91,33.37-27.7c0.5-0.55,0.46-1.41-0.09-1.91
					c-0.55-0.5-1.41-0.46-1.91,0.09c-11.53,12.71-28.11,24.5-31.98,26.78c-4.51-2.43-21.73-14.31-36.87-29.53
					C1.32,101.13-4.85,94.1-9.73,86.6h83.59l3.25,8.41c0.23,0.58,0.82,0.94,1.44,0.85c0.62-0.09,1.1-0.59,1.16-1.21l0.67-7.25
					l2.9,24.53c0.08,0.69,0.65,1.21,1.36,1.19c0.69-0.02,1.26-0.55,1.32-1.23l3.88-45.52l3.88,62.76c0.04,0.7,0.62,1.24,1.32,1.27
					c0.01,0,0.02,0,0.03,0c0.69,0,1.27-0.52,1.34-1.21l4.85-47.83l0.93,4.18c0.14,0.62,0.68,1.06,1.32,1.06h299.2
					c0.75,0,1.35-0.6,1.35-1.35S403.46,83.9,402.71,83.9z"/>
				<path class="st15" d="M403.41,83.21H105.29l-2.51-11.28c-0.14-0.65-0.75-1.09-1.4-1.05c-0.66,0.03-1.2,0.55-1.26,1.21
					l-4.02,39.67L92.1,47.18c-0.04-0.71-0.62-1.26-1.33-1.27c-0.01,0-0.01,0-0.02,0c-0.7,0-1.28,0.54-1.34,1.23L85.1,97.74
					l-2.84-24.06c-0.08-0.69-0.66-1.16-1.36-1.19c-0.69,0.01-1.26,0.54-1.33,1.22l-1.32,14.26l-1.51-3.91
					c-0.2-0.52-0.7-0.86-1.26-0.86H-9.99c-0.23,0-0.44,0.06-0.63,0.16c-6.01-9.98-9.51-20.66-6.9-30.56
					c4.57-17.32,20.47-23.97,34.19-22.88C28.96,30.91,42,38.41,43.44,52.97c0.07,0.69,0.65,1.22,1.34,1.22
					c0.69,0,1.27-0.53,1.34-1.22c1.13-11.44,10.22-20.52,23.14-23.15c10.29-2.09,25,0.39,32.58,14.28
					c5.24,9.59,4.65,15.44,4.64,15.49c-0.09,0.74,0.43,1.41,1.17,1.51c0.74,0.09,1.41-0.43,1.51-1.17
					c0.03-0.27,0.75-6.67-4.95-17.12c-6.82-12.49-20.75-18.63-35.49-15.63c-11.72,2.38-20.56,9.71-23.93,19.36
					c-4.14-12.07-16.34-18.38-27.92-19.3c-14.85-1.19-32.05,6.05-37.02,24.88c-9.81,37.21,58.32,83.72,64.35,86.49
					c0.18,0.08,0.37,0.12,0.56,0.12c0.2,0,0.4-0.04,0.58-0.13c2.79-1.34,20.85-13.91,33.37-27.7c0.5-0.55,0.46-1.41-0.09-1.91
					c-0.55-0.5-1.41-0.46-1.91,0.09c-11.53,12.71-28.11,24.5-31.98,26.78c-4.51-2.43-21.73-14.31-36.87-29.53
					C2.02,100.43-4.15,93.4-9.03,85.91h83.59l3.25,8.41c0.23,0.58,0.82,0.94,1.44,0.85c0.62-0.09,1.1-0.59,1.16-1.21l0.67-7.25
					l2.9,24.53c0.08,0.69,0.65,1.21,1.36,1.19c0.69-0.02,1.26-0.55,1.32-1.23l3.88-45.52l3.88,62.76c0.04,0.7,0.62,1.24,1.32,1.27
					c0.01,0,0.02,0,0.03,0c0.69,0,1.27-0.52,1.34-1.21l4.85-47.83l0.93,4.18c0.14,0.62,0.68,1.06,1.32,1.06h299.2
					c0.75,0,1.35-0.6,1.35-1.35C404.76,83.81,404.15,83.21,403.41,83.21z"/>
				<path class="st16" d="M404.11,82.51H105.98l-2.51-11.28c-0.14-0.65-0.75-1.09-1.4-1.05c-0.66,0.03-1.2,0.55-1.26,1.21
					l-4.02,39.67L92.8,46.48c-0.04-0.71-0.62-1.26-1.33-1.27c-0.01,0-0.01,0-0.02,0c-0.7,0-1.28,0.54-1.34,1.23L85.8,97.04
					l-2.84-24.06c-0.08-0.69-0.65-1.16-1.36-1.19c-0.69,0.01-1.26,0.54-1.33,1.22l-1.32,14.26l-1.51-3.91
					c-0.2-0.52-0.7-0.86-1.26-0.86H-9.29c-0.23,0-0.44,0.06-0.63,0.16c-6.01-9.98-9.51-20.66-6.9-30.56
					c4.57-17.32,20.47-23.97,34.19-22.88c12.29,0.98,25.33,8.48,26.77,23.04c0.07,0.69,0.65,1.22,1.34,1.22
					c0.69,0,1.27-0.53,1.34-1.22c1.13-11.44,10.22-20.52,23.14-23.15c10.29-2.09,25,0.39,32.58,14.28
					c5.24,9.59,4.65,15.44,4.64,15.49c-0.09,0.74,0.43,1.41,1.17,1.51c0.74,0.09,1.41-0.43,1.51-1.17
					c0.03-0.27,0.75-6.67-4.95-17.12c-6.82-12.49-20.75-18.63-35.49-15.63c-11.72,2.38-20.56,9.7-23.93,19.36
					c-4.14-12.07-16.34-18.38-27.92-19.3c-14.85-1.19-32.05,6.05-37.02,24.88c-9.81,37.21,58.32,83.72,64.35,86.49
					c0.18,0.08,0.37,0.12,0.56,0.12c0.2,0,0.4-0.04,0.58-0.13c2.79-1.34,20.85-13.91,33.37-27.7c0.5-0.55,0.46-1.41-0.09-1.91
					c-0.55-0.5-1.41-0.46-1.91,0.09c-11.53,12.71-28.11,24.5-31.98,26.78c-4.51-2.43-21.73-14.31-36.87-29.53
					C2.71,99.73-3.45,92.71-8.33,85.21h83.59l3.25,8.41c0.23,0.58,0.82,0.94,1.44,0.85c0.62-0.09,1.1-0.59,1.16-1.21l0.67-7.25
					l2.9,24.53c0.08,0.69,0.65,1.21,1.36,1.19c0.69-0.02,1.26-0.55,1.32-1.23l3.88-45.52l3.88,62.76c0.04,0.7,0.62,1.24,1.32,1.27
					c0.01,0,0.02,0,0.03,0c0.69,0,1.27-0.52,1.34-1.21l4.85-47.83l0.93,4.18c0.14,0.62,0.68,1.06,1.32,1.06h299.2
					c0.75,0,1.35-0.6,1.35-1.35C405.46,83.11,404.85,82.51,404.11,82.51z"/>
				<path class="st17" d="M404.8,81.81H106.68l-2.51-11.28c-0.14-0.65-0.75-1.09-1.4-1.05c-0.66,0.03-1.2,0.55-1.26,1.21
					l-4.02,39.67L93.5,45.78c-0.04-0.71-0.62-1.26-1.33-1.27c-0.01,0-0.01,0-0.02,0c-0.7,0-1.28,0.54-1.34,1.23L86.5,96.34
					l-2.84-24.06C83.57,71.6,83,71.12,82.3,71.1c-0.69,0.01-1.26,0.54-1.33,1.22l-1.32,14.26l-1.51-3.91
					c-0.2-0.52-0.7-0.86-1.26-0.86H-8.6c-0.23,0-0.44,0.06-0.63,0.16c-6.01-9.98-9.51-20.66-6.9-30.56
					c4.57-17.32,20.47-23.97,34.19-22.88c12.29,0.98,25.33,8.48,26.77,23.04c0.07,0.69,0.65,1.22,1.34,1.22
					c0.69,0,1.27-0.53,1.34-1.22c1.13-11.44,10.22-20.52,23.14-23.15c10.29-2.09,25,0.39,32.58,14.28
					c5.24,9.59,4.65,15.44,4.64,15.49c-0.09,0.74,0.43,1.41,1.17,1.51c0.74,0.09,1.41-0.43,1.51-1.17
					c0.03-0.27,0.75-6.67-4.95-17.12c-6.82-12.49-20.75-18.63-35.49-15.63c-11.72,2.38-20.56,9.7-23.93,19.36
					c-4.14-12.07-16.34-18.38-27.92-19.3C3.43,24.66-13.77,31.9-18.74,50.73c-9.81,37.21,58.32,83.72,64.35,86.49
					c0.18,0.08,0.37,0.12,0.56,0.12c0.2,0,0.4-0.04,0.58-0.13c2.79-1.34,20.85-13.91,33.37-27.7c0.5-0.55,0.46-1.41-0.09-1.91
					c-0.55-0.5-1.41-0.46-1.91,0.09c-11.53,12.71-28.11,24.5-31.98,26.78c-4.51-2.43-21.73-14.31-36.87-29.53
					C3.41,99.04-2.75,92.01-7.64,84.51h83.59l3.25,8.41c0.23,0.58,0.82,0.94,1.44,0.85c0.62-0.09,1.1-0.59,1.16-1.21l0.67-7.25
					l2.9,24.53c0.08,0.69,0.65,1.21,1.36,1.19c0.69-0.02,1.26-0.55,1.32-1.23l3.88-45.52l3.88,62.76c0.04,0.7,0.62,1.24,1.32,1.27
					c0.01,0,0.02,0,0.03,0c0.69,0,1.27-0.52,1.34-1.21l4.85-47.83l0.93,4.18c0.14,0.62,0.68,1.06,1.32,1.06h299.2
					c0.75,0,1.35-0.6,1.35-1.35C406.15,82.42,405.55,81.81,404.8,81.81z"/>
				<path class="st17" d="M405.5,81.11H107.38l-2.51-11.28c-0.14-0.65-0.75-1.09-1.4-1.05c-0.66,0.03-1.2,0.55-1.26,1.21
					l-4.02,39.67l-3.99-64.58c-0.04-0.71-0.62-1.26-1.33-1.27c-0.01,0-0.01,0-0.02,0c-0.7,0-1.28,0.54-1.34,1.23l-4.31,50.59
					l-2.84-24.06c-0.08-0.69-0.65-1.16-1.36-1.19c-0.69,0.01-1.26,0.54-1.33,1.22l-1.32,14.26l-1.51-3.91
					c-0.2-0.52-0.7-0.86-1.26-0.86H-7.9c-0.23,0-0.44,0.06-0.63,0.16c-6.01-9.98-9.51-20.66-6.9-30.56
					c4.57-17.32,20.47-23.97,34.19-22.88c12.29,0.98,25.33,8.48,26.77,23.04c0.07,0.69,0.65,1.22,1.34,1.22
					c0.69,0,1.27-0.53,1.34-1.22c1.13-11.44,10.22-20.52,23.14-23.15c10.29-2.09,25,0.39,32.58,14.28
					c5.24,9.59,4.65,15.44,4.64,15.49c-0.09,0.74,0.43,1.41,1.17,1.51c0.74,0.09,1.41-0.43,1.51-1.17
					c0.03-0.27,0.75-6.67-4.95-17.12c-6.82-12.49-20.75-18.63-35.49-15.63c-11.72,2.38-20.56,9.7-23.93,19.36
					c-4.14-12.07-16.34-18.38-27.92-19.3C4.13,23.96-13.07,31.2-18.04,50.03c-9.81,37.21,58.32,83.72,64.35,86.49
					c0.18,0.08,0.37,0.12,0.56,0.12c0.2,0,0.4-0.04,0.58-0.13c2.79-1.34,20.85-13.91,33.37-27.7c0.5-0.55,0.46-1.41-0.09-1.91
					c-0.55-0.5-1.41-0.46-1.91,0.09c-11.53,12.71-28.11,24.5-31.98,26.78c-4.51-2.43-21.73-14.31-36.87-29.53
					C4.11,98.34-2.06,91.31-6.94,83.81h83.59l3.25,8.41c0.23,0.58,0.82,0.94,1.44,0.85c0.62-0.09,1.1-0.59,1.16-1.21l0.67-7.25
					l2.9,24.53c0.08,0.69,0.65,1.21,1.36,1.19c0.69-0.02,1.26-0.55,1.32-1.23l3.88-45.52l3.88,62.76c0.04,0.7,0.62,1.24,1.32,1.27
					c0.01,0,0.02,0,0.03,0c0.69,0,1.27-0.52,1.34-1.21l4.85-47.83l0.93,4.18c0.14,0.62,0.68,1.06,1.32,1.06h299.2
					c0.75,0,1.35-0.6,1.35-1.35S406.25,81.11,405.5,81.11z"/>
				<path class="st18" d="M406.2,80.42H108.08l-2.51-11.28c-0.14-0.65-0.75-1.09-1.4-1.05c-0.66,0.03-1.2,0.55-1.26,1.21
					l-4.02,39.67l-3.99-64.58c-0.04-0.71-0.62-1.26-1.33-1.27c-0.01,0-0.01,0-0.02,0c-0.7,0-1.28,0.54-1.34,1.23l-4.31,50.59
					l-2.84-24.06c-0.08-0.69-0.65-1.16-1.36-1.19c-0.69,0.01-1.26,0.54-1.33,1.22l-1.32,14.26l-1.51-3.91
					c-0.2-0.52-0.7-0.86-1.26-0.86H-7.2c-0.23,0-0.44,0.06-0.63,0.16c-6.01-9.98-9.51-20.66-6.9-30.56
					c4.57-17.32,20.47-23.97,34.19-22.88c12.29,0.98,25.33,8.48,26.77,23.04c0.07,0.69,0.65,1.22,1.34,1.22
					c0.69,0,1.27-0.53,1.34-1.22c1.13-11.44,10.22-20.52,23.14-23.15c10.29-2.09,25,0.39,32.58,14.28
					c5.24,9.59,4.65,15.44,4.64,15.49c-0.09,0.74,0.43,1.41,1.17,1.51c0.74,0.09,1.41-0.43,1.51-1.17
					c0.03-0.27,0.75-6.67-4.95-17.12c-6.82-12.49-20.75-18.63-35.49-15.63c-11.72,2.38-20.56,9.7-23.93,19.36
					c-4.14-12.07-16.34-18.38-27.92-19.3C4.82,23.26-12.38,30.5-17.34,49.33c-9.81,37.21,58.32,83.72,64.35,86.49
					c0.18,0.08,0.37,0.12,0.56,0.12c0.2,0,0.4-0.04,0.58-0.13c2.79-1.34,20.85-13.91,33.37-27.7c0.5-0.55,0.46-1.41-0.09-1.91
					c-0.55-0.5-1.41-0.46-1.91,0.09c-11.53,12.71-28.11,24.5-31.98,26.78c-4.51-2.43-21.73-14.31-36.87-29.53
					C4.81,97.64-1.36,90.61-6.24,83.12h83.59l3.25,8.41c0.23,0.58,0.82,0.94,1.44,0.85c0.62-0.09,1.1-0.59,1.16-1.21l0.67-7.25
					l2.9,24.53c0.08,0.69,0.65,1.21,1.36,1.19c0.69-0.02,1.26-0.55,1.32-1.23l3.88-45.52l3.88,62.76c0.04,0.7,0.62,1.24,1.32,1.27
					c0.01,0,0.02,0,0.03,0c0.69,0,1.27-0.52,1.34-1.21l4.85-47.83l0.93,4.18c0.14,0.62,0.68,1.06,1.32,1.06h299.2
					c0.75,0,1.35-0.6,1.35-1.35S406.94,80.42,406.2,80.42z"/>
				<path class="st19" d="M406.9,79.72H108.77l-2.51-11.28c-0.14-0.65-0.75-1.09-1.4-1.05c-0.66,0.03-1.2,0.55-1.26,1.21
					l-4.02,39.67l-3.99-64.58c-0.04-0.71-0.62-1.26-1.33-1.27c-0.01,0-0.01,0-0.02,0c-0.7,0-1.28,0.54-1.34,1.23l-4.31,50.59
					L85.75,70.2c-0.08-0.69-0.66-1.16-1.36-1.19c-0.69,0.01-1.26,0.54-1.33,1.22l-1.32,14.26l-1.51-3.91
					c-0.2-0.52-0.7-0.86-1.26-0.86H-6.5c-0.23,0-0.44,0.06-0.63,0.16c-6.01-9.98-9.51-20.66-6.9-30.56
					C-9.47,32,6.43,25.35,20.16,26.44c12.29,0.98,25.33,8.48,26.77,23.04c0.07,0.69,0.65,1.22,1.34,1.22c0.69,0,1.27-0.53,1.34-1.22
					c1.13-11.44,10.22-20.52,23.14-23.15c10.29-2.09,25,0.39,32.58,14.28c5.24,9.59,4.65,15.44,4.64,15.49
					c-0.09,0.74,0.43,1.41,1.17,1.51c0.74,0.09,1.41-0.43,1.51-1.17c0.03-0.27,0.75-6.67-4.95-17.12
					c-6.82-12.49-20.75-18.63-35.49-15.63c-11.72,2.38-20.56,9.7-23.93,19.36c-4.14-12.07-16.34-18.38-27.92-19.3
					C5.52,22.56-11.68,29.8-16.64,48.64c-9.81,37.21,58.32,83.72,64.35,86.49c0.18,0.08,0.37,0.12,0.56,0.12
					c0.2,0,0.4-0.04,0.58-0.13c2.79-1.34,20.85-13.91,33.37-27.7c0.5-0.55,0.46-1.41-0.09-1.91c-0.55-0.5-1.41-0.46-1.91,0.09
					c-11.53,12.71-28.11,24.5-31.98,26.78c-4.51-2.43-21.73-14.31-36.87-29.53C5.5,96.94-0.66,89.92-5.54,82.42h83.59l3.25,8.41
					c0.23,0.58,0.82,0.94,1.44,0.85c0.62-0.09,1.1-0.59,1.16-1.21l0.67-7.25l2.9,24.53c0.08,0.69,0.65,1.21,1.36,1.19
					c0.69-0.02,1.26-0.55,1.32-1.23l3.88-45.52l3.88,62.76c0.04,0.7,0.62,1.24,1.32,1.27c0.01,0,0.02,0,0.03,0
					c0.69,0,1.27-0.52,1.34-1.21l4.85-47.83l0.93,4.18c0.14,0.62,0.68,1.06,1.32,1.06h299.2c0.75,0,1.35-0.6,1.35-1.35
					C408.25,80.32,407.64,79.72,406.9,79.72z"/>
				<path class="st19" d="M407.59,79.02H109.47l-2.51-11.28c-0.14-0.65-0.75-1.09-1.4-1.05c-0.66,0.03-1.2,0.55-1.26,1.21
					l-4.02,39.67l-3.99-64.58c-0.04-0.71-0.62-1.26-1.33-1.27c-0.01,0-0.01,0-0.02,0c-0.7,0-1.28,0.54-1.34,1.23l-4.31,50.59
					L86.44,69.5c-0.08-0.69-0.65-1.16-1.36-1.19c-0.69,0.01-1.26,0.54-1.33,1.22L82.44,83.8l-1.51-3.91
					c-0.2-0.52-0.7-0.86-1.26-0.86H-5.81c-0.23,0-0.44,0.06-0.63,0.16c-6.01-9.98-9.51-20.66-6.9-30.56
					C-8.77,31.3,7.13,24.65,20.86,25.74c12.29,0.98,25.33,8.48,26.77,23.04C47.7,49.48,48.28,50,48.97,50
					c0.69,0,1.27-0.53,1.34-1.22c1.13-11.44,10.22-20.52,23.14-23.15c10.29-2.09,25,0.39,32.58,14.28
					c5.24,9.59,4.65,15.44,4.64,15.49c-0.09,0.74,0.43,1.41,1.17,1.51c0.74,0.09,1.41-0.43,1.51-1.17
					c0.03-0.27,0.75-6.67-4.95-17.12C101.58,26.13,87.65,20,72.91,22.99c-11.72,2.38-20.56,9.7-23.93,19.36
					c-4.14-12.07-16.34-18.38-27.92-19.3c-14.85-1.19-32.05,6.05-37.02,24.88c-9.81,37.21,58.32,83.72,64.35,86.49
					c0.18,0.08,0.37,0.12,0.56,0.12c0.2,0,0.4-0.04,0.58-0.13c2.79-1.34,20.85-13.91,33.37-27.7c0.5-0.55,0.46-1.41-0.09-1.91
					c-0.55-0.5-1.41-0.46-1.91,0.09c-11.53,12.71-28.11,24.5-31.98,26.78c-4.51-2.43-21.73-14.31-36.87-29.53
					C6.2,96.25,0.04,89.22-4.85,81.72h83.59l3.25,8.41c0.23,0.58,0.82,0.94,1.44,0.85c0.62-0.09,1.1-0.59,1.16-1.21l0.67-7.25
					l2.9,24.53c0.08,0.69,0.65,1.21,1.36,1.19c0.69-0.02,1.26-0.55,1.32-1.23l3.88-45.52l3.88,62.76c0.04,0.7,0.62,1.24,1.32,1.27
					c0.01,0,0.02,0,0.03,0c0.69,0,1.27-0.52,1.34-1.21l4.85-47.83l0.93,4.18c0.14,0.62,0.68,1.06,1.32,1.06h299.2
					c0.75,0,1.35-0.6,1.35-1.35C408.94,79.63,408.34,79.02,407.59,79.02z"/>
				<path class="st20" d="M408.29,78.32H110.17l-2.51-11.28c-0.14-0.65-0.75-1.09-1.4-1.05c-0.66,0.03-1.2,0.55-1.26,1.21
					l-4.02,39.67L96.99,42.3c-0.04-0.71-0.62-1.26-1.33-1.27c-0.01,0-0.01,0-0.02,0c-0.7,0-1.28,0.54-1.34,1.23l-4.31,50.59
					L87.14,68.8c-0.08-0.69-0.65-1.16-1.36-1.19c-0.69,0.01-1.26,0.54-1.33,1.22L83.13,83.1l-1.51-3.91
					c-0.2-0.52-0.7-0.86-1.26-0.86H-5.11c-0.23,0-0.44,0.06-0.63,0.16c-6.01-9.98-9.51-20.66-6.9-30.56
					C-8.07,30.6,7.83,23.95,21.55,25.05c12.29,0.98,25.33,8.48,26.77,23.04c0.07,0.69,0.65,1.22,1.34,1.22
					c0.69,0,1.27-0.53,1.34-1.22c1.13-11.44,10.22-20.52,23.14-23.15c10.29-2.09,25,0.39,32.58,14.28
					c5.24,9.59,4.65,15.44,4.64,15.49c-0.09,0.74,0.43,1.41,1.17,1.51c0.74,0.09,1.41-0.43,1.51-1.17
					c0.03-0.27,0.75-6.67-4.95-17.12c-6.82-12.49-20.75-18.63-35.49-15.63C61.89,24.68,53.06,32,49.68,41.66
					c-4.14-12.07-16.34-18.38-27.92-19.3c-14.85-1.19-32.05,6.05-37.02,24.88c-9.81,37.21,58.32,83.72,64.35,86.49
					c0.18,0.08,0.37,0.12,0.56,0.12c0.2,0,0.4-0.04,0.58-0.13c2.79-1.34,20.85-13.91,33.37-27.7c0.5-0.55,0.46-1.41-0.09-1.91
					c-0.55-0.5-1.41-0.46-1.91,0.09c-11.53,12.71-28.11,24.5-31.98,26.78c-4.51-2.43-21.73-14.31-36.87-29.53
					C6.9,95.55,0.73,88.52-4.15,81.02h83.59l3.25,8.41c0.23,0.58,0.82,0.94,1.44,0.85c0.62-0.09,1.1-0.59,1.16-1.21l0.67-7.25
					l2.9,24.53c0.08,0.69,0.65,1.21,1.36,1.19c0.69-0.02,1.26-0.55,1.32-1.23l3.88-45.52l3.88,62.76c0.04,0.7,0.62,1.24,1.32,1.27
					c0.01,0,0.02,0,0.03,0c0.69,0,1.27-0.52,1.34-1.21l4.85-47.83l0.93,4.18c0.14,0.62,0.68,1.06,1.32,1.06h299.2
					c0.75,0,1.35-0.6,1.35-1.35S409.04,78.32,408.29,78.32z"/>
				<path class="st21" d="M408.99,77.63H110.87l-2.51-11.28c-0.14-0.65-0.75-1.09-1.4-1.05c-0.66,0.03-1.2,0.55-1.26,1.21
					l-4.02,39.67L97.68,41.6c-0.04-0.71-0.62-1.26-1.33-1.27c-0.01,0-0.01,0-0.02,0c-0.7,0-1.28,0.54-1.34,1.23l-4.31,50.59
					L87.84,68.1c-0.08-0.69-0.65-1.16-1.36-1.19c-0.69,0.01-1.26,0.54-1.33,1.22L83.83,82.4l-1.51-3.91
					c-0.2-0.52-0.7-0.86-1.26-0.86H-4.41c-0.23,0-0.44,0.06-0.63,0.16c-6.01-9.98-9.51-20.66-6.9-30.56
					c4.57-17.32,20.47-23.97,34.19-22.88c12.29,0.98,25.33,8.48,26.77,23.04c0.07,0.69,0.65,1.22,1.34,1.22
					c0.69,0,1.27-0.53,1.34-1.22c1.13-11.44,10.22-20.52,23.14-23.15c10.29-2.09,25,0.39,32.58,14.28
					c5.24,9.59,4.65,15.44,4.64,15.49c-0.09,0.74,0.43,1.41,1.17,1.51c0.74,0.09,1.41-0.43,1.51-1.17
					c0.03-0.27,0.75-6.67-4.95-17.12C102.98,24.73,89.05,18.6,74.31,21.6c-11.72,2.38-20.56,9.7-23.93,19.36
					c-4.14-12.07-16.34-18.38-27.92-19.3C7.61,20.47-9.59,27.71-14.55,46.54c-9.81,37.21,58.32,83.72,64.35,86.49
					c0.18,0.08,0.37,0.12,0.56,0.12c0.2,0,0.4-0.04,0.58-0.13c2.79-1.34,20.85-13.91,33.37-27.7c0.5-0.55,0.46-1.41-0.09-1.91
					c-0.55-0.5-1.41-0.46-1.91,0.09c-11.53,12.71-28.11,24.5-31.98,26.78c-4.51-2.43-21.73-14.31-36.87-29.53
					C7.6,94.85,1.43,87.82-3.45,80.33h83.59l3.25,8.41c0.23,0.58,0.82,0.94,1.44,0.85c0.62-0.09,1.1-0.59,1.16-1.21l0.67-7.25
					l2.9,24.53c0.08,0.69,0.65,1.21,1.36,1.19c0.69-0.02,1.26-0.55,1.32-1.23l3.88-45.52l3.88,62.76c0.04,0.7,0.62,1.24,1.32,1.27
					c0.01,0,0.02,0,0.03,0c0.69,0,1.27-0.52,1.34-1.21l4.85-47.83l0.93,4.18c0.14,0.62,0.68,1.06,1.32,1.06h299.2
					c0.75,0,1.35-0.6,1.35-1.35S409.73,77.63,408.99,77.63z"/>
				<path class="st22" d="M409.69,76.93H111.56l-2.51-11.28c-0.14-0.65-0.75-1.09-1.4-1.05c-0.66,0.03-1.2,0.55-1.26,1.21
					l-4.02,39.67L98.38,40.9c-0.04-0.71-0.62-1.26-1.33-1.27c-0.01,0-0.01,0-0.02,0c-0.7,0-1.28,0.54-1.34,1.23l-4.31,50.59
					l-2.84-24.06c-0.08-0.69-0.65-1.16-1.36-1.19c-0.69,0.01-1.26,0.54-1.33,1.22L84.53,81.7l-1.51-3.91
					c-0.2-0.52-0.7-0.86-1.26-0.86H-3.71c-0.23,0-0.44,0.06-0.63,0.16c-6.01-9.98-9.51-20.66-6.9-30.56
					c4.57-17.32,20.47-23.97,34.19-22.88c12.29,0.98,25.33,8.48,26.77,23.04c0.07,0.69,0.65,1.22,1.34,1.22
					c0.69,0,1.27-0.53,1.34-1.22c1.13-11.44,10.22-20.52,23.14-23.15c10.29-2.09,25,0.39,32.58,14.28
					c5.24,9.59,4.65,15.44,4.64,15.49c-0.09,0.74,0.43,1.41,1.17,1.51c0.74,0.09,1.41-0.43,1.51-1.17
					c0.03-0.27,0.75-6.67-4.95-17.12C103.67,24.04,89.75,17.9,75.01,20.9c-11.72,2.38-20.56,9.7-23.93,19.36
					c-4.14-12.07-16.34-18.38-27.92-19.3C8.31,19.77-8.89,27.01-13.85,45.85c-9.81,37.21,58.32,83.72,64.35,86.49
					c0.18,0.08,0.37,0.12,0.56,0.12c0.2,0,0.4-0.04,0.58-0.13c2.79-1.34,20.85-13.91,33.37-27.7c0.5-0.55,0.46-1.41-0.09-1.91
					c-0.55-0.5-1.41-0.46-1.91,0.09c-11.53,12.71-28.11,24.5-31.98,26.78c-4.51-2.43-21.73-14.31-36.87-29.53
					C8.29,94.15,2.13,87.13-2.75,79.63h83.59l3.25,8.41c0.23,0.58,0.82,0.94,1.44,0.85c0.62-0.09,1.1-0.59,1.16-1.21l0.67-7.25
					l2.9,24.53c0.08,0.69,0.65,1.21,1.36,1.19c0.69-0.02,1.26-0.55,1.32-1.23l3.88-45.52l3.88,62.76c0.04,0.7,0.62,1.24,1.32,1.27
					c0.01,0,0.02,0,0.03,0c0.69,0,1.27-0.52,1.34-1.21l4.85-47.83l0.93,4.18c0.14,0.62,0.68,1.06,1.32,1.06h299.2
					c0.75,0,1.35-0.6,1.35-1.35S410.43,76.93,409.69,76.93z"/>
				<path class="st22" d="M410.38,76.23H112.26l-2.51-11.28c-0.14-0.65-0.75-1.09-1.4-1.05c-0.66,0.03-1.2,0.55-1.26,1.21
					l-4.02,39.67L99.08,40.2c-0.04-0.71-0.62-1.26-1.33-1.27c-0.01,0-0.01,0-0.02,0c-0.7,0-1.28,0.54-1.34,1.23l-4.31,50.59
					l-2.84-24.06c-0.08-0.69-0.65-1.16-1.36-1.19c-0.69,0.01-1.26,0.54-1.33,1.22l-1.32,14.26l-1.51-3.91
					c-0.2-0.52-0.7-0.86-1.26-0.86H-3.01c-0.23,0-0.44,0.06-0.63,0.16c-6.01-9.98-9.51-20.66-6.9-30.56
					c4.57-17.32,20.47-23.97,34.19-22.88C35.93,23.93,48.98,31.44,50.42,46c0.07,0.69,0.65,1.22,1.34,1.22
					c0.69,0,1.27-0.53,1.34-1.22c1.13-11.44,10.22-20.52,23.14-23.15c10.29-2.09,25,0.39,32.58,14.28
					c5.24,9.59,4.65,15.44,4.64,15.49c-0.09,0.74,0.43,1.41,1.17,1.51c0.74,0.09,1.41-0.43,1.51-1.17
					c0.03-0.27,0.75-6.67-4.95-17.12C104.37,23.34,90.44,17.2,75.7,20.2c-11.72,2.38-20.56,9.7-23.93,19.36
					c-4.14-12.07-16.34-18.38-27.92-19.3C9.01,19.08-8.19,26.32-13.16,45.15c-9.81,37.21,58.32,83.72,64.35,86.49
					c0.18,0.08,0.37,0.12,0.56,0.12c0.2,0,0.4-0.04,0.58-0.13c2.79-1.34,20.85-13.91,33.37-27.7c0.5-0.55,0.46-1.41-0.09-1.91
					c-0.55-0.5-1.41-0.46-1.91,0.09c-11.53,12.71-28.11,24.5-31.98,26.78c-4.51-2.43-21.73-14.31-36.87-29.53
					C8.99,93.46,2.83,86.43-2.06,78.93h83.59l3.25,8.41c0.23,0.58,0.82,0.94,1.44,0.85c0.62-0.09,1.1-0.59,1.16-1.21l0.67-7.25
					l2.9,24.53c0.08,0.69,0.65,1.21,1.36,1.19c0.69-0.02,1.26-0.55,1.32-1.23l3.88-45.52l3.88,62.76c0.04,0.7,0.62,1.24,1.32,1.27
					c0.01,0,0.02,0,0.03,0c0.69,0,1.27-0.52,1.34-1.21l4.85-47.83l0.93,4.18c0.14,0.62,0.68,1.06,1.32,1.06h299.2
					c0.75,0,1.35-0.6,1.35-1.35C411.73,76.84,411.13,76.23,410.38,76.23z"/>
				<path class="st23" d="M411.08,75.53H112.96l-2.51-11.28c-0.14-0.65-0.75-1.09-1.4-1.05c-0.66,0.03-1.2,0.55-1.26,1.21
					l-4.02,39.67l-3.99-64.58c-0.04-0.71-0.62-1.26-1.33-1.27c-0.01,0-0.01,0-0.02,0c-0.7,0-1.28,0.54-1.34,1.23l-4.31,50.59
					l-2.84-24.06c-0.08-0.69-0.65-1.16-1.36-1.19c-0.69,0.01-1.26,0.54-1.33,1.22l-1.32,14.26l-1.51-3.91
					c-0.2-0.52-0.7-0.86-1.26-0.86H-2.32c-0.23,0-0.44,0.06-0.63,0.16c-6.01-9.98-9.51-20.66-6.9-30.56
					c4.57-17.32,20.47-23.97,34.19-22.88c12.29,0.98,25.33,8.48,26.77,23.04c0.07,0.69,0.65,1.22,1.34,1.22s1.27-0.53,1.34-1.22
					c1.13-11.44,10.22-20.52,23.14-23.15c10.29-2.09,25,0.39,32.58,14.28c5.24,9.59,4.65,15.44,4.64,15.49
					c-0.09,0.74,0.43,1.41,1.17,1.51c0.74,0.09,1.41-0.43,1.51-1.17c0.03-0.27,0.75-6.67-4.95-17.12
					C105.07,22.64,91.14,16.51,76.4,19.5c-11.72,2.38-20.56,9.7-23.93,19.36c-4.14-12.07-16.34-18.38-27.92-19.3
					C9.71,18.38-7.49,25.62-12.46,44.45c-9.81,37.21,58.32,83.72,64.35,86.49c0.18,0.08,0.37,0.12,0.56,0.12
					c0.2,0,0.4-0.04,0.58-0.13c2.79-1.34,20.85-13.91,33.37-27.7c0.5-0.55,0.46-1.41-0.09-1.91c-0.55-0.5-1.41-0.46-1.91,0.09
					c-11.53,12.71-28.11,24.5-31.98,26.78c-4.51-2.43-21.73-14.31-36.87-29.53C9.69,92.76,3.53,85.73-1.36,78.23h83.59l3.25,8.41
					c0.23,0.58,0.82,0.94,1.44,0.85c0.62-0.09,1.1-0.59,1.16-1.21l0.67-7.25l2.9,24.53c0.08,0.69,0.65,1.21,1.36,1.19
					c0.69-0.02,1.26-0.55,1.32-1.23l3.88-45.52l3.88,62.76c0.04,0.7,0.62,1.24,1.32,1.27c0.01,0,0.02,0,0.03,0
					c0.69,0,1.27-0.52,1.34-1.21L109.63,73l0.93,4.18c0.14,0.62,0.68,1.06,1.32,1.06h299.2c0.75,0,1.35-0.6,1.35-1.35
					S411.83,75.53,411.08,75.53z"/>
				<path class="st24" d="M411.78,74.84H113.66l-2.51-11.28c-0.14-0.65-0.75-1.09-1.4-1.05c-0.66,0.03-1.2,0.55-1.26,1.21
					l-4.02,39.67l-3.99-64.58c-0.04-0.71-0.62-1.26-1.33-1.27c-0.01,0-0.01,0-0.02,0c-0.7,0-1.28,0.54-1.34,1.23l-4.31,50.59
					l-2.84-24.06c-0.08-0.69-0.65-1.16-1.36-1.19c-0.69,0.01-1.26,0.54-1.33,1.22l-1.32,14.26l-1.51-3.91
					c-0.2-0.52-0.7-0.86-1.26-0.86H-1.62c-0.23,0-0.44,0.06-0.63,0.16c-6.01-9.98-9.51-20.66-6.9-30.56
					c4.57-17.32,20.47-23.97,34.19-22.88c12.29,0.98,25.33,8.48,26.77,23.04c0.07,0.69,0.65,1.22,1.34,1.22
					c0.69,0,1.27-0.53,1.34-1.22c1.13-11.44,10.22-20.52,23.14-23.15c10.29-2.09,25,0.39,32.58,14.28
					c5.24,9.59,4.65,15.44,4.64,15.49c-0.09,0.74,0.43,1.41,1.17,1.51c0.74,0.09,1.41-0.43,1.51-1.17
					c0.03-0.27,0.75-6.67-4.95-17.12c-6.82-12.49-20.75-18.63-35.49-15.63c-11.72,2.38-20.56,9.7-23.93,19.36
					c-4.14-12.07-16.34-18.38-27.92-19.3C10.4,17.68-6.8,24.92-11.76,43.75c-9.81,37.21,58.32,83.72,64.35,86.49
					c0.18,0.08,0.37,0.12,0.56,0.12c0.2,0,0.4-0.04,0.58-0.13c2.79-1.34,20.85-13.91,33.37-27.7c0.5-0.55,0.46-1.41-0.09-1.91
					c-0.55-0.5-1.41-0.46-1.91,0.09C73.58,113.43,57,125.23,53.13,127.5c-4.51-2.43-21.73-14.31-36.87-29.53
					C10.39,92.06,4.22,85.03-0.66,77.53h83.59l3.25,8.41c0.23,0.58,0.82,0.94,1.44,0.85c0.62-0.09,1.1-0.59,1.16-1.21l0.67-7.25
					l2.9,24.53c0.08,0.69,0.65,1.21,1.36,1.19c0.69-0.02,1.26-0.55,1.32-1.23l3.88-45.52l3.88,62.76c0.04,0.7,0.62,1.24,1.32,1.27
					c0.01,0,0.02,0,0.03,0c0.69,0,1.27-0.52,1.34-1.21l4.85-47.83l0.93,4.18c0.14,0.62,0.68,1.06,1.32,1.06h299.2
					c0.75,0,1.35-0.6,1.35-1.35S412.52,74.84,411.78,74.84z"/>
				<path class="st24" d="M412.48,74.14H114.35l-2.51-11.28c-0.14-0.65-0.75-1.09-1.4-1.05c-0.66,0.03-1.2,0.55-1.26,1.21
					l-4.02,39.67l-3.99-64.58c-0.04-0.71-0.62-1.26-1.33-1.27c-0.01,0-0.01,0-0.02,0c-0.7,0-1.28,0.54-1.34,1.23l-4.31,50.59
					l-2.84-24.06c-0.08-0.69-0.65-1.16-1.36-1.19c-0.69,0.01-1.26,0.54-1.33,1.22l-1.32,14.26L85.81,75
					c-0.2-0.52-0.7-0.86-1.26-0.86H-0.92c-0.23,0-0.44,0.06-0.63,0.16c-6.01-9.98-9.51-20.66-6.9-30.56
					c4.57-17.32,20.47-23.97,34.19-22.88c12.29,0.98,25.33,8.48,26.77,23.04c0.07,0.69,0.65,1.22,1.34,1.22
					c0.69,0,1.27-0.53,1.34-1.22c1.13-11.44,10.22-20.52,23.14-23.15c10.29-2.09,25,0.39,32.58,14.28
					c5.24,9.59,4.65,15.44,4.64,15.49c-0.09,0.74,0.43,1.41,1.17,1.51c0.74,0.09,1.41-0.43,1.51-1.17
					c0.03-0.27,0.75-6.67-4.95-17.12c-6.82-12.49-20.75-18.63-35.49-15.63c-11.72,2.38-20.56,9.7-23.93,19.36
					c-4.14-12.07-16.34-18.38-27.92-19.3C11.1,16.98-6.1,24.22-11.06,43.06c-9.81,37.21,58.32,83.72,64.35,86.49
					c0.18,0.08,0.37,0.12,0.56,0.12c0.2,0,0.4-0.04,0.58-0.13c2.79-1.34,20.85-13.91,33.37-27.7c0.5-0.55,0.46-1.41-0.09-1.91
					c-0.55-0.5-1.41-0.46-1.91,0.09c-11.53,12.71-28.11,24.5-31.98,26.78c-4.51-2.43-21.73-14.31-36.87-29.53
					C11.08,91.36,4.92,84.34,0.04,76.84h83.59l3.25,8.41c0.23,0.58,0.82,0.94,1.44,0.85c0.62-0.09,1.1-0.59,1.16-1.21l0.67-7.25
					l2.9,24.53c0.08,0.69,0.65,1.21,1.36,1.19c0.69-0.02,1.26-0.55,1.32-1.23l3.88-45.52l3.88,62.76c0.04,0.7,0.62,1.24,1.32,1.27
					c0.01,0,0.02,0,0.03,0c0.69,0,1.27-0.52,1.34-1.21l4.85-47.83l0.93,4.18c0.14,0.62,0.68,1.06,1.32,1.06h299.2
					c0.75,0,1.35-0.6,1.35-1.35S413.22,74.14,412.48,74.14z"/>
				<path class="st25" d="M413.17,73.44H115.05l-2.51-11.28c-0.14-0.65-0.75-1.09-1.4-1.05c-0.66,0.03-1.2,0.55-1.26,1.21
					L105.86,102l-3.99-64.58c-0.04-0.71-0.62-1.26-1.33-1.27c-0.01,0-0.01,0-0.02,0c-0.7,0-1.28,0.54-1.34,1.23l-4.31,50.59
					l-2.84-24.05c-0.08-0.69-0.65-1.16-1.36-1.19c-0.69,0.01-1.26,0.54-1.33,1.22l-1.32,14.26l-1.51-3.91
					c-0.2-0.52-0.7-0.86-1.26-0.86H-0.22c-0.23,0-0.44,0.06-0.63,0.16c-6.01-9.98-9.51-20.66-6.9-30.56
					c4.57-17.32,20.47-23.97,34.19-22.88c12.29,0.98,25.33,8.48,26.77,23.04c0.07,0.69,0.65,1.22,1.34,1.22
					c0.69,0,1.27-0.53,1.34-1.22c1.13-11.44,10.22-20.52,23.14-23.15c10.29-2.09,25,0.39,32.58,14.28
					c5.24,9.59,4.65,15.44,4.64,15.49c-0.09,0.74,0.43,1.41,1.17,1.51c0.74,0.09,1.41-0.43,1.51-1.17
					c0.03-0.27,0.75-6.67-4.95-17.12c-6.82-12.49-20.75-18.63-35.49-15.63c-11.72,2.38-20.56,9.7-23.93,19.36
					C50.42,24.7,38.23,18.4,26.65,17.47C11.8,16.29-5.4,23.53-10.37,42.36c-9.81,37.21,58.32,83.72,64.35,86.49
					c0.18,0.08,0.37,0.12,0.56,0.12c0.2,0,0.4-0.04,0.58-0.13c2.79-1.34,20.85-13.91,33.37-27.7c0.5-0.55,0.46-1.41-0.09-1.91
					c-0.55-0.5-1.41-0.46-1.91,0.09c-11.53,12.71-28.11,24.5-31.98,26.78c-4.51-2.43-21.73-14.31-36.87-29.53
					C11.78,90.67,5.62,83.64,0.73,76.14h83.59l3.25,8.41c0.23,0.58,0.82,0.94,1.44,0.85c0.62-0.09,1.1-0.59,1.16-1.21l0.67-7.25
					l2.9,24.53c0.08,0.69,0.65,1.21,1.36,1.19c0.69-0.02,1.26-0.55,1.32-1.23l3.88-45.52l3.88,62.76c0.04,0.7,0.62,1.24,1.32,1.27
					c0.01,0,0.02,0,0.03,0c0.69,0,1.27-0.52,1.34-1.21l4.85-47.83l0.93,4.18c0.14,0.62,0.68,1.06,1.32,1.06h299.2
					c0.75,0,1.35-0.6,1.35-1.35C414.52,74.04,413.92,73.44,413.17,73.44z"/>
				<path class="st26" d="M413.87,72.74H115.75l-2.51-11.28c-0.14-0.65-0.75-1.09-1.4-1.05c-0.66,0.03-1.2,0.55-1.26,1.21
					l-4.02,39.67l-3.99-64.58c-0.04-0.71-0.62-1.26-1.33-1.27c-0.01,0-0.01,0-0.02,0c-0.7,0-1.28,0.54-1.34,1.23l-4.31,50.59
					l-2.84-24.06c-0.08-0.69-0.66-1.16-1.36-1.19c-0.69,0.01-1.26,0.54-1.33,1.22l-1.32,14.26l-1.51-3.91
					c-0.2-0.52-0.7-0.86-1.26-0.86H0.47c-0.23,0-0.44,0.06-0.63,0.16c-6.01-9.98-9.51-20.66-6.9-30.56
					c4.57-17.32,20.47-23.97,34.19-22.88c12.29,0.98,25.33,8.48,26.77,23.04c0.07,0.69,0.65,1.22,1.34,1.22
					c0.69,0,1.27-0.53,1.34-1.22c1.13-11.44,10.22-20.52,23.14-23.15c10.29-2.09,25,0.39,32.58,14.28
					c5.24,9.59,4.65,15.44,4.64,15.49c-0.09,0.74,0.43,1.41,1.17,1.51c0.74,0.09,1.41-0.43,1.51-1.17
					c0.03-0.27,0.75-6.67-4.95-17.12c-6.82-12.49-20.75-18.63-35.49-15.63c-11.72,2.38-20.56,9.7-23.93,19.36
					C51.12,24,38.92,17.7,27.35,16.78C12.5,15.59-4.7,22.83-9.67,41.66c-9.81,37.21,58.32,83.72,64.35,86.49
					c0.18,0.08,0.37,0.12,0.56,0.12c0.2,0,0.4-0.04,0.58-0.13c2.79-1.34,20.85-13.91,33.37-27.7c0.5-0.55,0.46-1.41-0.09-1.91
					c-0.55-0.5-1.41-0.46-1.91,0.09c-11.53,12.71-28.11,24.5-31.98,26.78c-4.51-2.43-21.73-14.31-36.87-29.53
					C12.48,89.97,6.32,82.94,1.43,75.44h83.59l3.25,8.41c0.23,0.58,0.82,0.94,1.44,0.85c0.62-0.09,1.1-0.59,1.16-1.21l0.67-7.25
					l2.9,24.53c0.08,0.69,0.65,1.21,1.36,1.19c0.69-0.02,1.26-0.55,1.32-1.23L101,55.22l3.88,62.76c0.04,0.7,0.62,1.24,1.32,1.27
					c0.01,0,0.02,0,0.03,0c0.69,0,1.27-0.52,1.34-1.21l4.85-47.83l0.93,4.18c0.14,0.62,0.68,1.06,1.32,1.06h299.2
					c0.75,0,1.35-0.6,1.35-1.35C415.22,73.35,414.62,72.74,413.87,72.74z"/>
				<path class="st27" d="M414.57,72.05H116.45l-2.51-11.28c-0.14-0.65-0.75-1.09-1.4-1.05c-0.66,0.03-1.2,0.55-1.26,1.21
					l-4.02,39.67l-3.99-64.58c-0.04-0.71-0.62-1.26-1.33-1.27c-0.01,0-0.01,0-0.02,0c-0.7,0-1.28,0.54-1.34,1.23l-4.31,50.59
					l-2.84-24.06c-0.08-0.69-0.65-1.16-1.36-1.19c-0.69,0.01-1.26,0.54-1.33,1.22l-1.32,14.26l-1.51-3.91
					c-0.2-0.52-0.7-0.86-1.26-0.86H1.17c-0.23,0-0.44,0.06-0.63,0.16c-6.01-9.98-9.51-20.66-6.9-30.56
					c4.57-17.32,20.47-23.97,34.19-22.88c12.29,0.98,25.33,8.48,26.77,23.04c0.07,0.69,0.65,1.22,1.34,1.22
					c0.69,0,1.27-0.53,1.34-1.22c1.13-11.44,10.22-20.52,23.14-23.15c10.29-2.09,25,0.39,32.58,14.28
					c5.24,9.59,4.65,15.44,4.64,15.49c-0.09,0.74,0.43,1.41,1.17,1.51c0.74,0.09,1.41-0.43,1.51-1.17
					c0.03-0.27,0.75-6.67-4.95-17.12c-6.82-12.49-20.75-18.63-35.49-15.63c-11.72,2.38-20.56,9.7-23.93,19.36
					C51.82,23.31,39.62,17,28.05,16.08C13.19,14.89-4.01,22.13-8.97,40.96c-9.81,37.21,58.32,83.72,64.35,86.49
					c0.18,0.08,0.37,0.12,0.56,0.12c0.2,0,0.4-0.04,0.58-0.13c2.79-1.34,20.85-13.91,33.37-27.7c0.5-0.55,0.46-1.41-0.09-1.91
					c-0.55-0.5-1.41-0.46-1.91,0.09c-11.53,12.71-28.11,24.5-31.98,26.78c-4.51-2.43-21.73-14.31-36.87-29.53
					C13.18,89.27,7.01,82.24,2.13,74.74h83.59l3.25,8.41c0.23,0.58,0.82,0.94,1.44,0.85c0.62-0.09,1.1-0.59,1.16-1.21l0.67-7.25
					l2.9,24.53c0.08,0.69,0.65,1.21,1.36,1.19c0.69-0.02,1.26-0.55,1.32-1.23l3.88-45.52l3.88,62.76c0.04,0.7,0.62,1.24,1.32,1.27
					c0.01,0,0.02,0,0.03,0c0.69,0,1.27-0.52,1.34-1.21l4.85-47.83l0.93,4.18c0.14,0.62,0.68,1.06,1.32,1.06h299.2
					c0.75,0,1.35-0.6,1.35-1.35S415.32,72.05,414.57,72.05z"/>
				<path class="st27" d="M415.27,71.35H117.14l-2.51-11.28c-0.14-0.65-0.75-1.09-1.4-1.05c-0.66,0.03-1.2,0.55-1.26,1.21
					l-4.02,39.67l-3.99-64.58c-0.04-0.71-0.62-1.26-1.33-1.27c-0.01,0-0.01,0-0.02,0c-0.7,0-1.28,0.54-1.34,1.23l-4.31,50.59
					l-2.84-24.06c-0.08-0.69-0.65-1.16-1.36-1.19c-0.69,0.01-1.26,0.54-1.33,1.22l-1.32,14.26l-1.51-3.91
					c-0.2-0.52-0.7-0.86-1.26-0.86H1.87c-0.23,0-0.44,0.06-0.63,0.16c-6.01-9.98-9.51-20.66-6.9-30.56
					C-1.1,23.63,14.8,16.98,28.53,18.07c12.29,0.98,25.33,8.48,26.77,23.04c0.07,0.69,0.65,1.22,1.34,1.22
					c0.69,0,1.27-0.53,1.34-1.22c1.13-11.44,10.22-20.52,23.14-23.15c10.29-2.09,25,0.39,32.58,14.28
					c5.24,9.59,4.65,15.44,4.64,15.49c-0.09,0.74,0.43,1.41,1.17,1.51c0.74,0.09,1.41-0.43,1.51-1.17
					c0.03-0.27,0.75-6.67-4.95-17.12c-6.82-12.49-20.75-18.63-35.49-15.63c-11.72,2.38-20.56,9.7-23.93,19.36
					c-4.14-12.07-16.34-18.38-27.92-19.3C13.89,14.19-3.31,21.43-8.27,40.27c-9.81,37.21,58.32,83.72,64.35,86.49
					c0.18,0.08,0.37,0.12,0.56,0.12c0.2,0,0.4-0.04,0.58-0.13c2.79-1.34,20.85-13.91,33.37-27.7c0.5-0.55,0.46-1.41-0.09-1.91
					c-0.55-0.5-1.41-0.46-1.91,0.09c-11.53,12.71-28.11,24.5-31.98,26.78c-4.51-2.43-21.73-14.31-36.87-29.53
					C13.88,88.57,7.71,81.55,2.83,74.05h83.59l3.25,8.41c0.23,0.58,0.82,0.94,1.44,0.85c0.62-0.09,1.1-0.59,1.16-1.21l0.67-7.25
					l2.9,24.53c0.08,0.69,0.65,1.21,1.36,1.19c0.69-0.02,1.26-0.55,1.32-1.23l3.88-45.52l3.88,62.76c0.04,0.7,0.62,1.24,1.32,1.27
					c0.01,0,0.02,0,0.03,0c0.69,0,1.27-0.52,1.34-1.21l4.85-47.83l0.93,4.18c0.14,0.62,0.68,1.06,1.32,1.06h299.2
					c0.75,0,1.35-0.6,1.35-1.35S416.01,71.35,415.27,71.35z"/>
				<path class="st28" d="M415.96,70.65H117.84l-2.51-11.28c-0.14-0.65-0.75-1.09-1.4-1.05c-0.66,0.03-1.2,0.55-1.26,1.21
					l-4.02,39.67l-3.99-64.58c-0.04-0.71-0.62-1.26-1.33-1.27c-0.01,0-0.01,0-0.02,0c-0.7,0-1.28,0.54-1.34,1.23l-4.31,50.59
					l-2.84-24.06c-0.08-0.69-0.65-1.16-1.36-1.19c-0.69,0.01-1.26,0.54-1.33,1.22l-1.32,14.26l-1.51-3.91
					c-0.2-0.52-0.7-0.86-1.26-0.86H2.57c-0.23,0-0.44,0.06-0.63,0.16c-6.01-9.98-9.51-20.66-6.9-30.56
					C-0.4,22.93,15.5,16.28,29.23,17.37C41.51,18.35,54.56,25.86,56,40.42c0.07,0.69,0.65,1.22,1.34,1.22
					c0.69,0,1.27-0.53,1.34-1.22c1.13-11.44,10.22-20.52,23.14-23.15c10.29-2.09,25,0.39,32.58,14.28
					c5.24,9.59,4.65,15.44,4.64,15.49c-0.09,0.74,0.43,1.41,1.17,1.51c0.74,0.09,1.41-0.43,1.51-1.17
					c0.03-0.27,0.75-6.67-4.95-17.12c-6.82-12.49-20.75-18.63-35.49-15.63C69.56,17,60.73,24.32,57.36,33.98
					c-4.14-12.07-16.34-18.38-27.92-19.3C14.59,13.49-2.61,20.74-7.58,39.57c-9.81,37.21,58.32,83.72,64.35,86.49
					c0.18,0.08,0.37,0.12,0.56,0.12c0.2,0,0.4-0.04,0.58-0.13c2.79-1.34,20.85-13.91,33.37-27.7c0.5-0.55,0.46-1.41-0.09-1.91
					c-0.55-0.5-1.41-0.46-1.91,0.09c-11.53,12.71-28.11,24.5-31.98,26.78c-4.51-2.43-21.73-14.31-36.87-29.53
					C14.57,87.88,8.41,80.85,3.52,73.35h83.59l3.25,8.41c0.23,0.58,0.82,0.94,1.44,0.85c0.62-0.09,1.1-0.59,1.16-1.21l0.67-7.25
					l2.9,24.53c0.08,0.69,0.65,1.21,1.36,1.19c0.69-0.02,1.26-0.55,1.32-1.23l3.88-45.52l3.88,62.76c0.04,0.7,0.62,1.24,1.32,1.27
					c0.01,0,0.02,0,0.03,0c0.69,0,1.27-0.52,1.34-1.21l4.85-47.83l0.93,4.18c0.14,0.62,0.68,1.06,1.32,1.06h299.2
					c0.75,0,1.35-0.6,1.35-1.35C417.31,71.25,416.71,70.65,415.96,70.65z"/>
				<path class="st29" d="M416.66,69.95H118.54l-2.51-11.28c-0.14-0.65-0.75-1.09-1.4-1.05c-0.66,0.03-1.2,0.55-1.26,1.21
					l-4.02,39.67l-3.99-64.58c-0.04-0.71-0.62-1.26-1.33-1.27c-0.01,0-0.01,0-0.02,0c-0.7,0-1.28,0.54-1.34,1.23l-4.31,50.59
					l-2.84-24.05c-0.08-0.69-0.65-1.16-1.36-1.19c-0.69,0.01-1.26,0.54-1.33,1.22L91.5,74.73l-1.51-3.91
					c-0.2-0.52-0.7-0.86-1.26-0.86H3.26c-0.23,0-0.44,0.06-0.63,0.16c-6.01-9.98-9.51-20.66-6.9-30.56
					C0.3,22.23,16.2,15.58,29.92,16.68c12.29,0.98,25.33,8.48,26.77,23.04c0.07,0.69,0.65,1.22,1.34,1.22
					c0.69,0,1.27-0.53,1.34-1.22c1.13-11.44,10.22-20.52,23.14-23.15c10.29-2.09,25,0.39,32.58,14.28
					c5.24,9.59,4.65,15.44,4.64,15.49c-0.09,0.74,0.43,1.41,1.17,1.51c0.74,0.09,1.41-0.43,1.51-1.17
					c0.03-0.27,0.75-6.67-4.95-17.12c-6.82-12.49-20.75-18.63-35.49-15.63c-11.72,2.38-20.56,9.7-23.93,19.36
					c-4.14-12.07-16.34-18.38-27.92-19.3C15.29,12.8-1.91,20.04-6.88,38.87c-9.81,37.21,58.32,83.72,64.35,86.49
					c0.18,0.08,0.37,0.12,0.56,0.12c0.2,0,0.4-0.04,0.58-0.13c2.79-1.34,20.85-13.91,33.37-27.7c0.5-0.55,0.46-1.41-0.09-1.91
					c-0.55-0.5-1.41-0.46-1.91,0.09c-11.53,12.71-28.11,24.5-31.98,26.78c-4.51-2.43-21.73-14.31-36.87-29.53
					C15.27,87.18,9.11,80.15,4.22,72.65h83.59l3.25,8.41c0.23,0.58,0.82,0.94,1.44,0.85c0.62-0.09,1.1-0.59,1.16-1.21l0.67-7.25
					l2.9,24.53c0.08,0.69,0.65,1.21,1.36,1.19c0.69-0.02,1.26-0.55,1.32-1.23l3.88-45.52l3.88,62.76c0.04,0.7,0.62,1.24,1.32,1.27
					c0.01,0,0.02,0,0.03,0c0.69,0,1.27-0.52,1.34-1.21l4.85-47.83l0.93,4.18c0.14,0.62,0.68,1.06,1.32,1.06h299.2
					c0.75,0,1.35-0.6,1.35-1.35S417.41,69.95,416.66,69.95z"/>
				<path class="st30" d="M417.36,69.26H119.24l-2.51-11.28c-0.14-0.65-0.75-1.09-1.4-1.05c-0.66,0.03-1.2,0.55-1.26,1.21
					l-4.02,39.67l-3.99-64.58c-0.04-0.71-0.62-1.26-1.33-1.27c-0.01,0-0.01,0-0.02,0c-0.7,0-1.28,0.54-1.34,1.23l-4.31,50.59
					l-2.84-24.06c-0.08-0.69-0.66-1.16-1.36-1.19c-0.69,0.01-1.26,0.54-1.33,1.22L92.2,74.03l-1.51-3.91
					c-0.2-0.52-0.7-0.86-1.26-0.86H3.96c-0.23,0-0.44,0.06-0.63,0.16c-6.01-9.98-9.51-20.66-6.9-30.56
					C1,21.54,16.9,14.89,30.62,15.98c12.29,0.98,25.33,8.48,26.77,23.04c0.07,0.69,0.65,1.22,1.34,1.22c0.69,0,1.27-0.53,1.34-1.22
					C61.21,27.58,70.3,18.5,83.22,15.87c10.29-2.09,25,0.39,32.58,14.28c5.24,9.59,4.65,15.44,4.64,15.49
					c-0.09,0.74,0.43,1.41,1.17,1.51c0.74,0.09,1.41-0.43,1.51-1.17c0.03-0.27,0.75-6.67-4.95-17.12
					c-6.82-12.49-20.75-18.63-35.49-15.63c-11.72,2.38-20.56,9.7-23.93,19.36c-4.14-12.07-16.34-18.38-27.92-19.3
					C15.98,12.1-1.21,19.34-6.18,38.17c-9.81,37.21,58.32,83.72,64.35,86.49c0.18,0.08,0.37,0.12,0.56,0.12
					c0.2,0,0.4-0.04,0.58-0.13c2.79-1.34,20.85-13.91,33.37-27.7c0.5-0.55,0.46-1.41-0.09-1.91c-0.55-0.5-1.41-0.46-1.91,0.09
					c-11.53,12.71-28.11,24.5-31.98,26.78c-4.51-2.43-21.73-14.31-36.87-29.53C15.97,86.48,9.8,79.45,4.92,71.95h83.59l3.25,8.41
					c0.23,0.58,0.82,0.94,1.44,0.85c0.62-0.09,1.1-0.59,1.16-1.21l0.67-7.25l2.9,24.53c0.08,0.69,0.65,1.21,1.36,1.19
					c0.69-0.02,1.26-0.55,1.32-1.23l3.88-45.52l3.88,62.76c0.04,0.7,0.62,1.24,1.32,1.27c0.01,0,0.02,0,0.03,0
					c0.69,0,1.27-0.52,1.34-1.21l4.85-47.83l0.93,4.18c0.14,0.62,0.68,1.06,1.32,1.06h299.2c0.75,0,1.35-0.6,1.35-1.35
					C418.71,69.86,418.11,69.26,417.36,69.26z"/>
				<path class="st30" d="M418.06,68.56H119.94l-2.51-11.28c-0.14-0.65-0.75-1.09-1.4-1.05c-0.66,0.03-1.2,0.55-1.26,1.21
					l-4.02,39.67l-3.99-64.58c-0.04-0.71-0.62-1.26-1.33-1.27c-0.01,0-0.01,0-0.02,0c-0.7,0-1.28,0.54-1.34,1.23l-4.31,50.59
					l-2.84-24.06c-0.08-0.69-0.65-1.16-1.36-1.19c-0.69,0.01-1.26,0.54-1.33,1.22L92.9,73.33l-1.51-3.91
					c-0.2-0.52-0.7-0.86-1.26-0.86H4.66c-0.23,0-0.44,0.06-0.63,0.16c-6.01-9.98-9.51-20.66-6.9-30.56
					C1.7,20.84,17.59,14.19,31.32,15.28c12.29,0.98,25.33,8.48,26.77,23.04c0.07,0.69,0.65,1.22,1.34,1.22
					c0.69,0,1.27-0.53,1.34-1.22c1.13-11.44,10.22-20.52,23.14-23.15c10.29-2.09,25,0.39,32.58,14.28
					c5.24,9.59,4.65,15.44,4.64,15.49c-0.09,0.74,0.43,1.41,1.17,1.51c0.74,0.09,1.41-0.43,1.51-1.17
					c0.03-0.27,0.75-6.67-4.95-17.12c-6.82-12.49-20.75-18.63-35.49-15.63c-11.72,2.38-20.56,9.7-23.93,19.36
					c-4.14-12.07-16.34-18.38-27.92-19.3C16.68,11.4-0.52,18.64-5.48,37.47c-9.81,37.21,58.32,83.72,64.35,86.49
					c0.18,0.08,0.37,0.12,0.56,0.12c0.2,0,0.4-0.04,0.58-0.13c2.79-1.34,20.85-13.91,33.37-27.7c0.5-0.55,0.46-1.41-0.09-1.91
					c-0.55-0.5-1.41-0.46-1.91,0.09c-11.53,12.71-28.11,24.5-31.98,26.78c-4.51-2.43-21.73-14.31-36.87-29.53
					C16.67,85.78,10.5,78.76,5.62,71.26H89.2l3.25,8.41c0.23,0.58,0.82,0.94,1.44,0.85c0.62-0.09,1.1-0.59,1.16-1.21l0.67-7.25
					l2.9,24.53c0.08,0.69,0.65,1.21,1.36,1.19c0.69-0.02,1.26-0.55,1.32-1.23l3.88-45.52l3.88,62.76c0.04,0.7,0.62,1.24,1.32,1.27
					c0.01,0,0.02,0,0.03,0c0.69,0,1.27-0.52,1.34-1.21l4.85-47.83l0.93,4.18c0.14,0.62,0.68,1.06,1.32,1.06h299.2
					c0.75,0,1.35-0.6,1.35-1.35C419.41,69.16,418.8,68.56,418.06,68.56z"/>
				<path class="st31" d="M418.76,67.86H120.63l-2.51-11.28c-0.14-0.65-0.75-1.09-1.4-1.05c-0.66,0.03-1.2,0.55-1.26,1.21
					l-4.02,39.67l-3.99-64.58c-0.04-0.71-0.62-1.26-1.33-1.27c-0.01,0-0.01,0-0.02,0c-0.7,0-1.28,0.54-1.34,1.23l-4.31,50.59
					l-2.84-24.06c-0.08-0.69-0.65-1.16-1.36-1.19c-0.69,0.01-1.26,0.54-1.33,1.22L93.6,72.63l-1.51-3.91
					c-0.2-0.52-0.7-0.86-1.26-0.86H5.36c-0.23,0-0.44,0.06-0.63,0.16c-6.01-9.98-9.51-20.66-6.9-30.56
					c4.57-17.32,20.47-23.97,34.19-22.88c12.29,0.98,25.33,8.48,26.77,23.04c0.07,0.69,0.65,1.22,1.34,1.22
					c0.69,0,1.27-0.53,1.34-1.22c1.13-11.44,10.22-20.52,23.14-23.15c10.29-2.09,25,0.39,32.58,14.28
					c5.24,9.59,4.65,15.44,4.64,15.49c-0.09,0.74,0.43,1.41,1.17,1.51c0.74,0.09,1.41-0.43,1.51-1.17
					c0.03-0.27,0.75-6.67-4.95-17.12c-6.82-12.49-20.75-18.63-35.49-15.63c-11.72,2.38-20.56,9.7-23.93,19.36
					C56,19.12,43.81,12.82,32.23,11.89C17.38,10.7,0.18,17.95-4.79,36.78c-9.81,37.21,58.32,83.72,64.35,86.49
					c0.18,0.08,0.37,0.12,0.56,0.12c0.2,0,0.4-0.04,0.58-0.13c2.79-1.34,20.85-13.91,33.37-27.7c0.5-0.55,0.46-1.41-0.09-1.91
					c-0.55-0.5-1.41-0.46-1.91,0.09c-11.53,12.71-28.11,24.5-31.98,26.78c-4.51-2.43-21.73-14.31-36.87-29.53
					C17.36,85.09,11.2,78.06,6.31,70.56H89.9l3.25,8.41c0.23,0.58,0.82,0.94,1.44,0.85c0.62-0.09,1.1-0.59,1.16-1.21l0.67-7.25
					l2.9,24.53c0.08,0.69,0.65,1.21,1.36,1.19c0.69-0.02,1.26-0.55,1.32-1.23l3.88-45.52l3.88,62.76c0.04,0.7,0.62,1.24,1.32,1.27
					c0.01,0,0.02,0,0.03,0c0.69,0,1.27-0.52,1.34-1.21l4.85-47.83l0.93,4.18c0.14,0.62,0.68,1.06,1.32,1.06h299.2
					c0.75,0,1.35-0.6,1.35-1.35C420.1,68.46,419.5,67.86,418.76,67.86z"/>
				<path class="st32" d="M419.45,67.16H121.33l-2.51-11.28c-0.14-0.65-0.75-1.09-1.4-1.05c-0.66,0.03-1.2,0.55-1.26,1.21
					l-4.02,39.67l-3.99-64.58c-0.04-0.71-0.62-1.26-1.33-1.27c-0.01,0-0.01,0-0.02,0c-0.7,0-1.28,0.54-1.34,1.23l-4.31,50.59
					L98.3,57.64c-0.08-0.69-0.65-1.16-1.36-1.19c-0.69,0.01-1.26,0.54-1.33,1.22L94.3,71.94l-1.51-3.91
					c-0.2-0.52-0.7-0.86-1.26-0.86H6.05c-0.23,0-0.44,0.06-0.63,0.16c-6.01-9.98-9.51-20.66-6.9-30.56
					c4.57-17.32,20.47-23.97,34.19-22.88C45,14.87,58.04,22.37,59.49,36.93c0.07,0.69,0.65,1.22,1.34,1.22
					c0.69,0,1.27-0.53,1.34-1.22c1.13-11.44,10.22-20.52,23.14-23.15c10.29-2.09,25,0.39,32.58,14.28
					c5.24,9.59,4.65,15.44,4.64,15.49c-0.09,0.74,0.43,1.41,1.17,1.51c0.74,0.09,1.41-0.43,1.51-1.17
					c0.03-0.27,0.75-6.67-4.95-17.12c-6.82-12.49-20.75-18.63-35.49-15.63c-11.72,2.38-20.56,9.71-23.93,19.36
					C56.7,18.42,44.5,12.12,32.93,11.2C18.08,10.01,0.88,17.25-4.09,36.08c-9.81,37.21,58.32,83.72,64.35,86.49
					c0.18,0.08,0.37,0.12,0.56,0.12c0.2,0,0.4-0.04,0.58-0.13c2.79-1.34,20.85-13.91,33.37-27.7c0.5-0.55,0.46-1.41-0.09-1.91
					c-0.55-0.5-1.41-0.46-1.91,0.09c-11.53,12.71-28.11,24.5-31.98,26.78c-4.51-2.43-21.73-14.31-36.87-29.53
					C18.06,84.39,11.9,77.36,7.01,69.86H90.6l3.25,8.41c0.23,0.58,0.82,0.94,1.44,0.85c0.62-0.09,1.1-0.59,1.16-1.21l0.67-7.25
					l2.9,24.53c0.08,0.69,0.65,1.21,1.36,1.19c0.69-0.02,1.26-0.55,1.32-1.23l3.88-45.52l3.88,62.76c0.04,0.7,0.62,1.24,1.32,1.27
					c0.01,0,0.02,0,0.03,0c0.69,0,1.27-0.52,1.34-1.21L118,64.63l0.93,4.18c0.14,0.62,0.68,1.06,1.32,1.06h299.2
					c0.75,0,1.35-0.6,1.35-1.35S420.2,67.16,419.45,67.16z"/>
				<path class="st32" d="M420.15,66.47H122.03l-2.51-11.28c-0.14-0.65-0.75-1.09-1.4-1.05c-0.66,0.03-1.2,0.55-1.26,1.21
					l-4.02,39.67l-3.99-64.58c-0.04-0.71-0.62-1.26-1.33-1.27c-0.01,0-0.01,0-0.02,0c-0.7,0-1.28,0.54-1.34,1.23L101.84,81L99,56.94
					c-0.08-0.69-0.65-1.16-1.36-1.19c-0.69,0.01-1.26,0.54-1.33,1.22l-1.32,14.26l-1.51-3.91c-0.2-0.52-0.7-0.86-1.26-0.86H6.75
					c-0.23,0-0.44,0.06-0.63,0.16c-6.01-9.98-9.51-20.66-6.9-30.56C3.79,18.75,19.69,12.1,33.41,13.19
					c12.29,0.98,25.33,8.48,26.77,23.04c0.07,0.69,0.65,1.22,1.34,1.22c0.69,0,1.27-0.53,1.34-1.22
					C64,24.79,73.09,15.71,86.01,13.08c10.29-2.09,25,0.39,32.58,14.28c5.24,9.59,4.65,15.44,4.64,15.49
					c-0.09,0.74,0.43,1.41,1.17,1.51c0.74,0.09,1.41-0.43,1.51-1.17c0.03-0.27,0.75-6.67-4.95-17.12
					c-6.82-12.49-20.75-18.63-35.49-15.63c-11.72,2.38-20.56,9.7-23.93,19.36C57.4,17.72,45.2,11.42,33.63,10.5
					C18.77,9.31,1.58,16.55-3.39,35.38c-9.81,37.21,58.32,83.72,64.35,86.49c0.18,0.08,0.37,0.12,0.56,0.12
					c0.2,0,0.4-0.04,0.58-0.13c2.79-1.34,20.85-13.91,33.37-27.7c0.5-0.55,0.46-1.41-0.09-1.91c-0.55-0.5-1.41-0.46-1.91,0.09
					c-11.53,12.71-28.11,24.5-31.98,26.78c-4.51-2.43-21.73-14.31-36.87-29.53c-5.87-5.91-12.04-12.93-16.92-20.43H91.3l3.25,8.41
					c0.23,0.58,0.82,0.94,1.44,0.85c0.62-0.09,1.1-0.59,1.16-1.21l0.67-7.25l2.9,24.53c0.08,0.69,0.65,1.21,1.36,1.19
					c0.69-0.02,1.26-0.55,1.32-1.23l3.88-45.52l3.88,62.76c0.04,0.7,0.62,1.24,1.32,1.27c0.01,0,0.02,0,0.03,0
					c0.69,0,1.27-0.52,1.34-1.21l4.85-47.83l0.93,4.18c0.14,0.62,0.68,1.06,1.32,1.06h299.2c0.75,0,1.35-0.6,1.35-1.35
					S420.9,66.47,420.15,66.47z"/>
				<path class="st33" d="M420.85,65.77H122.73l-2.51-11.28c-0.14-0.65-0.75-1.09-1.4-1.05c-0.66,0.03-1.2,0.55-1.26,1.21
					l-4.02,39.67l-3.99-64.58c-0.04-0.71-0.62-1.26-1.33-1.27c-0.01,0-0.01,0-0.02,0c-0.7,0-1.28,0.54-1.34,1.23l-4.31,50.59
					L99.7,56.24c-0.08-0.69-0.66-1.16-1.36-1.19c-0.69,0.01-1.26,0.54-1.33,1.22l-1.32,14.26l-1.51-3.91
					c-0.2-0.52-0.7-0.86-1.26-0.86H7.45c-0.23,0-0.44,0.06-0.63,0.16c-6.01-9.98-9.51-20.66-6.9-30.56
					C4.49,18.05,20.38,11.4,34.11,12.49c12.29,0.98,25.33,8.48,26.77,23.04c0.07,0.69,0.65,1.22,1.34,1.22
					c0.69,0,1.27-0.53,1.34-1.22C64.7,24.1,73.78,15.01,86.7,12.38c10.29-2.09,25,0.39,32.58,14.28c5.24,9.59,4.65,15.44,4.64,15.49
					c-0.09,0.74,0.43,1.41,1.17,1.51c0.74,0.09,1.41-0.43,1.51-1.17c0.03-0.27,0.75-6.67-4.95-17.12
					c-6.82-12.49-20.75-18.63-35.49-15.63c-11.72,2.38-20.56,9.7-23.93,19.36C58.1,17.03,45.9,10.72,34.32,9.8
					C19.47,8.61,2.27,15.85-2.69,34.68c-9.81,37.21,58.32,83.72,64.35,86.49c0.18,0.08,0.37,0.12,0.56,0.12
					c0.2,0,0.4-0.04,0.58-0.13c2.79-1.34,20.85-13.91,33.37-27.7c0.5-0.55,0.46-1.41-0.09-1.91c-0.55-0.5-1.41-0.46-1.91,0.09
					c-11.53,12.71-28.11,24.5-31.98,26.78c-4.51-2.43-21.73-14.31-36.87-29.53c-5.87-5.91-12.04-12.93-16.92-20.43H92l3.25,8.41
					c0.23,0.58,0.82,0.94,1.44,0.85c0.62-0.09,1.1-0.59,1.16-1.21l0.67-7.25l2.9,24.53c0.08,0.69,0.65,1.21,1.36,1.19
					c0.69-0.02,1.26-0.55,1.32-1.23l3.88-45.52l3.88,62.76c0.04,0.7,0.62,1.24,1.32,1.27c0.01,0,0.02,0,0.03,0
					c0.69,0,1.27-0.52,1.34-1.21l4.85-47.83l0.93,4.18c0.14,0.62,0.68,1.06,1.32,1.06h299.2c0.75,0,1.35-0.6,1.35-1.35
					C422.2,66.37,421.59,65.77,420.85,65.77z"/>
				<path class="st34" d="M421.55,65.07H123.42l-2.51-11.28c-0.14-0.65-0.75-1.09-1.4-1.05c-0.66,0.03-1.2,0.55-1.26,1.21
					l-4.02,39.67l-3.99-64.58c-0.04-0.71-0.62-1.26-1.33-1.27c-0.01,0-0.01,0-0.02,0c-0.7,0-1.28,0.54-1.34,1.23l-4.31,50.59
					l-2.84-24.06c-0.08-0.69-0.65-1.16-1.36-1.19c-0.69,0.01-1.26,0.54-1.33,1.22l-1.32,14.26l-1.51-3.91
					c-0.2-0.52-0.7-0.86-1.26-0.86H8.15c-0.23,0-0.44,0.06-0.63,0.16C1.5,55.25-2,44.57,0.61,34.67
					C5.18,17.35,21.08,10.7,34.81,11.79c12.29,0.98,25.33,8.48,26.77,23.04c0.07,0.69,0.65,1.22,1.34,1.22
					c0.69,0,1.27-0.53,1.34-1.22C65.4,23.4,74.48,14.31,87.4,11.68c10.29-2.09,25,0.39,32.58,14.28c5.24,9.59,4.65,15.44,4.64,15.49
					c-0.09,0.74,0.43,1.41,1.17,1.51c0.74,0.09,1.41-0.43,1.51-1.17c0.03-0.27,0.75-6.67-4.95-17.12
					C115.53,12.18,101.6,6.04,86.86,9.04c-11.72,2.38-20.56,9.7-23.93,19.36C58.79,16.33,46.6,10.03,35.02,9.1
					C20.17,7.91,2.97,15.16-1.99,33.99c-9.81,37.21,58.32,83.72,64.35,86.49c0.18,0.08,0.37,0.12,0.56,0.12
					c0.2,0,0.4-0.04,0.58-0.13c2.79-1.34,20.85-13.91,33.37-27.7c0.5-0.55,0.46-1.41-0.09-1.91c-0.55-0.5-1.41-0.46-1.91,0.09
					c-11.53,12.71-28.11,24.5-31.98,26.78c-4.51-2.43-21.73-14.31-36.87-29.53C20.15,82.3,13.99,75.27,9.1,67.77h83.59l3.25,8.41
					c0.23,0.58,0.82,0.94,1.44,0.85c0.62-0.09,1.1-0.59,1.16-1.21l0.67-7.25l2.9,24.53c0.08,0.69,0.65,1.21,1.36,1.19
					c0.69-0.02,1.26-0.55,1.32-1.23l3.88-45.52l3.88,62.76c0.04,0.7,0.62,1.24,1.32,1.27c0.01,0,0.02,0,0.03,0
					c0.69,0,1.27-0.52,1.34-1.21l4.85-47.83l0.93,4.18c0.14,0.62,0.68,1.06,1.32,1.06h299.2c0.75,0,1.35-0.6,1.35-1.35
					C422.9,65.67,422.29,65.07,421.55,65.07z"/>
				<path class="st35" d="M422.24,64.37H124.12l-2.51-11.28c-0.14-0.65-0.75-1.09-1.4-1.05c-0.66,0.03-1.2,0.55-1.26,1.21
					l-4.02,39.67l-3.99-64.58c-0.04-0.71-0.62-1.26-1.33-1.27c-0.01,0-0.01,0-0.02,0c-0.7,0-1.28,0.54-1.34,1.23l-4.31,50.59
					l-2.84-24.06c-0.08-0.69-0.65-1.16-1.36-1.19c-0.69,0.01-1.26,0.54-1.33,1.22l-1.32,14.26l-1.51-3.91
					c-0.2-0.52-0.7-0.86-1.26-0.86H8.84c-0.23,0-0.44,0.06-0.63,0.16C2.2,54.55-1.3,43.88,1.31,33.98
					C5.88,16.65,21.78,10,35.51,11.1c12.29,0.98,25.33,8.48,26.77,23.04c0.07,0.69,0.65,1.22,1.34,1.22c0.69,0,1.27-0.53,1.34-1.22
					C66.1,22.7,75.18,13.61,88.1,10.99c10.29-2.09,25,0.39,32.58,14.28c5.24,9.59,4.65,15.44,4.64,15.49
					c-0.09,0.74,0.43,1.41,1.17,1.51c0.74,0.09,1.41-0.43,1.51-1.17c0.03-0.27,0.75-6.67-4.95-17.12
					C116.23,11.48,102.3,5.35,87.56,8.34c-11.72,2.38-20.56,9.7-23.93,19.36C59.49,15.63,47.29,9.33,35.72,8.41
					C20.87,7.22,3.67,14.46-1.3,33.29c-9.81,37.21,58.32,83.72,64.35,86.49c0.18,0.08,0.37,0.12,0.56,0.12c0.2,0,0.4-0.04,0.58-0.13
					c2.79-1.34,20.85-13.91,33.37-27.7c0.5-0.55,0.46-1.41-0.09-1.91c-0.55-0.5-1.41-0.46-1.91,0.09
					c-11.53,12.71-28.11,24.5-31.98,26.78c-4.51-2.43-21.73-14.31-36.87-29.53C20.85,81.6,14.69,74.57,9.8,67.07h83.59l3.25,8.41
					c0.23,0.58,0.82,0.94,1.44,0.85c0.62-0.09,1.1-0.59,1.16-1.21l0.67-7.25l2.9,24.53c0.08,0.69,0.65,1.21,1.36,1.19
					c0.69-0.02,1.26-0.55,1.32-1.23l3.88-45.52l3.88,62.76c0.04,0.7,0.62,1.24,1.32,1.27c0.01,0,0.02,0,0.03,0
					c0.69,0,1.27-0.52,1.34-1.21l4.85-47.83l0.93,4.18c0.14,0.62,0.68,1.06,1.32,1.06h299.2c0.75,0,1.35-0.6,1.35-1.35
					S422.99,64.37,422.24,64.37z"/>
				<path class="st35" d="M422.94,63.67H124.82l-2.51-11.28c-0.14-0.65-0.75-1.09-1.4-1.05c-0.66,0.03-1.2,0.55-1.26,1.21
					l-4.02,39.67l-3.99-64.58c-0.04-0.71-0.62-1.26-1.33-1.27c-0.01,0-0.01,0-0.02,0c-0.7,0-1.28,0.54-1.34,1.23l-4.31,50.59
					l-2.84-24.06c-0.08-0.69-0.65-1.16-1.36-1.19c-0.69,0.01-1.26,0.54-1.33,1.22l-1.32,14.26l-1.51-3.91
					c-0.2-0.52-0.7-0.86-1.26-0.86H9.54c-0.23,0-0.44,0.06-0.63,0.16C2.9,53.85-0.6,43.18,2.01,33.28
					C6.58,15.96,22.48,9.31,36.2,10.4c12.29,0.98,25.33,8.48,26.77,23.04c0.07,0.69,0.65,1.22,1.34,1.22c0.69,0,1.27-0.53,1.34-1.22
					C66.79,22,75.88,12.92,88.8,10.29c10.29-2.09,25,0.39,32.58,14.28c5.24,9.59,4.65,15.44,4.64,15.49
					c-0.09,0.74,0.43,1.41,1.17,1.51c0.74,0.09,1.41-0.43,1.51-1.17c0.03-0.27,0.75-6.67-4.95-17.12
					C116.93,10.78,103,4.65,88.26,7.64c-11.72,2.38-20.56,9.7-23.93,19.36C60.19,14.93,47.99,8.63,36.42,7.71
					C21.57,6.52,4.37,13.76-0.6,32.59c-9.81,37.21,58.32,83.72,64.35,86.49c0.18,0.08,0.37,0.12,0.56,0.12c0.2,0,0.4-0.04,0.58-0.13
					c2.79-1.34,20.85-13.91,33.37-27.7c0.5-0.55,0.46-1.41-0.09-1.91c-0.55-0.5-1.41-0.46-1.91,0.09
					c-11.53,12.71-28.11,24.5-31.98,26.78c-4.51-2.43-21.73-14.31-36.87-29.53C21.55,80.9,15.38,73.87,10.5,66.37h83.59l3.25,8.41
					c0.23,0.58,0.82,0.94,1.44,0.85c0.62-0.09,1.1-0.59,1.16-1.21l0.67-7.25l2.9,24.53c0.08,0.69,0.65,1.21,1.36,1.19
					c0.69-0.02,1.26-0.55,1.32-1.23l3.88-45.52l3.88,62.76c0.04,0.7,0.62,1.24,1.32,1.27c0.01,0,0.02,0,0.03,0
					c0.69,0,1.27-0.52,1.34-1.21l4.85-47.83l0.93,4.18c0.14,0.62,0.68,1.06,1.32,1.06h299.2c0.75,0,1.35-0.6,1.35-1.35
					S423.69,63.67,422.94,63.67z"/>
				<path class="st36" d="M423.64,62.98H125.52L123,51.7c-0.14-0.65-0.75-1.09-1.4-1.05c-0.66,0.03-1.2,0.55-1.26,1.21l-4.02,39.67
					l-3.99-64.58c-0.04-0.71-0.62-1.26-1.33-1.27c-0.01,0-0.01,0-0.02,0c-0.7,0-1.28,0.54-1.34,1.23l-4.31,50.59l-2.84-24.05
					c-0.08-0.69-0.65-1.16-1.36-1.19c-0.69,0.01-1.26,0.54-1.33,1.22l-1.32,14.26l-1.51-3.91c-0.2-0.52-0.7-0.86-1.26-0.86H10.24
					c-0.23,0-0.44,0.06-0.63,0.16c-6.01-9.98-9.51-20.66-6.9-30.56C7.28,15.26,23.17,8.61,36.9,9.7
					c12.29,0.98,25.33,8.48,26.77,23.04c0.07,0.69,0.65,1.22,1.34,1.22c0.69,0,1.27-0.53,1.34-1.22
					c1.13-11.44,10.22-20.52,23.14-23.15c10.29-2.09,25,0.39,32.58,14.28c5.24,9.59,4.65,15.44,4.64,15.49
					c-0.09,0.74,0.43,1.41,1.17,1.51c0.74,0.09,1.41-0.43,1.51-1.17c0.03-0.27,0.75-6.67-4.95-17.12
					C117.62,10.09,103.7,3.95,88.96,6.95c-11.72,2.38-20.56,9.7-23.93,19.36C60.89,14.24,48.69,7.93,37.11,7.01
					C22.26,5.82,5.06,13.06,0.1,31.89c-9.81,37.21,58.32,83.72,64.35,86.49c0.18,0.08,0.37,0.12,0.56,0.12c0.2,0,0.4-0.04,0.58-0.13
					c2.79-1.34,20.85-13.91,33.37-27.7c0.5-0.55,0.46-1.41-0.09-1.91c-0.55-0.5-1.41-0.46-1.91,0.09
					c-11.53,12.71-28.11,24.5-31.98,26.78c-4.51-2.43-21.73-14.31-36.87-29.53C22.25,80.2,16.08,73.18,11.2,65.68h83.59l3.25,8.41
					c0.23,0.58,0.82,0.94,1.44,0.85c0.62-0.09,1.1-0.59,1.16-1.21l0.67-7.25l2.9,24.53c0.08,0.69,0.65,1.21,1.36,1.19
					c0.69-0.02,1.26-0.55,1.32-1.23l3.88-45.52l3.88,62.76c0.04,0.7,0.62,1.24,1.32,1.27c0.01,0,0.02,0,0.03,0
					c0.69,0,1.27-0.52,1.34-1.21l4.85-47.83l0.93,4.18c0.14,0.62,0.68,1.06,1.32,1.06h299.2c0.75,0,1.35-0.6,1.35-1.35
					S424.38,62.98,423.64,62.98z"/>
				<path class="st37" d="M424.34,62.28H126.21L123.7,51c-0.14-0.65-0.75-1.09-1.4-1.05c-0.66,0.03-1.2,0.55-1.26,1.21l-4.02,39.67
					l-3.99-64.58c-0.04-0.71-0.62-1.26-1.33-1.27c-0.01,0-0.01,0-0.02,0c-0.7,0-1.28,0.54-1.34,1.23l-4.31,50.59l-2.84-24.06
					c-0.08-0.69-0.66-1.16-1.36-1.19c-0.69,0.01-1.26,0.54-1.33,1.22l-1.32,14.26l-1.51-3.91c-0.2-0.52-0.7-0.86-1.26-0.86H10.94
					c-0.23,0-0.44,0.06-0.63,0.16c-6.01-9.98-9.51-20.66-6.9-30.56C7.97,14.56,23.87,7.91,37.6,9c12.29,0.98,25.33,8.48,26.77,23.04
					c0.07,0.69,0.65,1.22,1.34,1.22c0.69,0,1.27-0.53,1.34-1.22c1.13-11.44,10.22-20.52,23.14-23.15c10.29-2.09,25,0.39,32.58,14.28
					c5.24,9.59,4.65,15.44,4.64,15.49c-0.09,0.74,0.43,1.41,1.17,1.51c0.74,0.09,1.41-0.43,1.51-1.17
					c0.03-0.27,0.75-6.67-4.95-17.12C118.32,9.39,104.39,3.25,89.65,6.25c-11.72,2.38-20.56,9.7-23.93,19.36
					C61.58,13.54,49.39,7.23,37.81,6.31C22.96,5.12,5.76,12.36,0.8,31.2c-9.81,37.21,58.32,83.72,64.35,86.49
					c0.18,0.08,0.37,0.12,0.56,0.12c0.2,0,0.4-0.04,0.58-0.13c2.79-1.34,20.85-13.91,33.37-27.7c0.5-0.55,0.46-1.41-0.09-1.91
					c-0.55-0.5-1.41-0.46-1.91,0.09c-11.53,12.71-28.11,24.5-31.98,26.78c-4.51-2.43-21.73-14.31-36.87-29.53
					C22.94,79.5,16.78,72.48,11.9,64.98h83.59l3.25,8.41c0.23,0.58,0.82,0.94,1.44,0.85c0.62-0.09,1.1-0.59,1.16-1.21l0.67-7.25
					l2.9,24.53c0.08,0.69,0.65,1.21,1.36,1.19c0.69-0.02,1.26-0.55,1.32-1.23l3.88-45.52l3.88,62.76c0.04,0.7,0.62,1.24,1.32,1.27
					c0.01,0,0.02,0,0.03,0c0.69,0,1.27-0.52,1.34-1.21l4.85-47.83l0.93,4.18c0.14,0.62,0.68,1.06,1.32,1.06h299.2
					c0.75,0,1.35-0.6,1.35-1.35C425.69,62.88,425.08,62.28,424.34,62.28z"/>
				<path class="st38" d="M425.03,61.58H126.91L124.4,50.3c-0.14-0.65-0.75-1.09-1.4-1.05c-0.66,0.03-1.2,0.55-1.26,1.21
					l-4.02,39.67l-3.99-64.58c-0.04-0.71-0.62-1.26-1.33-1.27c-0.01,0-0.01,0-0.02,0c-0.7,0-1.28,0.54-1.34,1.23l-4.31,50.59
					l-2.84-24.06c-0.08-0.69-0.65-1.16-1.36-1.19c-0.69,0.01-1.26,0.54-1.33,1.22l-1.32,14.26l-1.51-3.91
					c-0.2-0.52-0.7-0.86-1.26-0.86H11.63c-0.23,0-0.44,0.06-0.63,0.16c-6.01-9.98-9.51-20.66-6.9-30.56
					C8.67,13.86,24.57,7.21,38.3,8.31c12.29,0.98,25.33,8.48,26.77,23.04c0.07,0.69,0.65,1.22,1.34,1.22c0.69,0,1.27-0.53,1.34-1.22
					C68.89,19.91,77.97,10.82,90.89,8.2c10.29-2.09,25,0.39,32.58,14.28c5.24,9.59,4.65,15.44,4.64,15.49
					c-0.09,0.74,0.43,1.41,1.17,1.51c0.74,0.09,1.41-0.43,1.51-1.17c0.03-0.27,0.75-6.67-4.95-17.12
					C119.02,8.69,105.09,2.56,90.35,5.55c-11.72,2.38-20.56,9.7-23.93,19.36C62.28,12.84,50.08,6.54,38.51,5.62
					C23.66,4.43,6.46,11.67,1.49,30.5c-9.81,37.21,58.32,83.72,64.35,86.49c0.18,0.08,0.37,0.12,0.56,0.12c0.2,0,0.4-0.04,0.58-0.13
					c2.79-1.34,20.85-13.91,33.37-27.7c0.5-0.55,0.46-1.41-0.09-1.91c-0.55-0.5-1.41-0.46-1.91,0.09
					c-11.53,12.71-28.11,24.5-31.98,26.78c-4.51-2.43-21.73-14.31-36.87-29.53c-5.87-5.91-12.04-12.93-16.92-20.43h83.59l3.25,8.41
					c0.23,0.58,0.82,0.94,1.44,0.85c0.62-0.09,1.1-0.59,1.16-1.21l0.67-7.25l2.9,24.53c0.08,0.69,0.65,1.21,1.36,1.19
					c0.69-0.02,1.26-0.55,1.32-1.23l3.88-45.52l3.88,62.76c0.04,0.7,0.62,1.24,1.32,1.27c0.01,0,0.02,0,0.03,0
					c0.69,0,1.27-0.52,1.34-1.21l4.85-47.83l0.93,4.18c0.14,0.62,0.68,1.06,1.32,1.06h299.2c0.75,0,1.35-0.6,1.35-1.35
					C426.38,62.19,425.78,61.58,425.03,61.58z"/>
				<path class="st38" d="M425.73,60.88H127.61l-2.51-11.28c-0.14-0.65-0.75-1.09-1.4-1.05c-0.66,0.03-1.2,0.55-1.26,1.21
					l-4.02,39.67l-3.99-64.58c-0.04-0.71-0.62-1.26-1.33-1.27c-0.01,0-0.01,0-0.02,0c-0.7,0-1.28,0.54-1.34,1.23l-4.31,50.59
					l-2.84-24.06c-0.08-0.69-0.65-1.16-1.36-1.19c-0.69,0.01-1.26,0.54-1.33,1.22l-1.32,14.26l-1.51-3.91
					c-0.2-0.52-0.7-0.86-1.26-0.86H12.33c-0.23,0-0.44,0.06-0.63,0.16c-6.01-9.98-9.51-20.66-6.9-30.56
					C9.37,13.16,25.27,6.51,38.99,7.61c12.29,0.98,25.33,8.48,26.77,23.04c0.07,0.69,0.65,1.22,1.34,1.22
					c0.69,0,1.27-0.53,1.34-1.22C69.58,19.21,78.67,10.13,91.59,7.5c10.29-2.09,25,0.39,32.58,14.28
					c5.24,9.59,4.65,15.44,4.64,15.49c-0.09,0.74,0.43,1.41,1.17,1.51c0.74,0.09,1.41-0.43,1.51-1.17
					c0.03-0.27,0.75-6.67-4.95-17.12C119.72,7.99,105.79,1.86,91.05,4.85c-11.72,2.38-20.56,9.7-23.93,19.36
					C62.98,12.14,50.78,5.84,39.21,4.92C24.36,3.73,7.16,10.97,2.19,29.8c-9.81,37.21,58.32,83.72,64.35,86.49
					c0.18,0.08,0.37,0.12,0.56,0.12c0.2,0,0.4-0.04,0.58-0.13c2.79-1.34,20.85-13.91,33.37-27.7c0.5-0.55,0.46-1.41-0.09-1.91
					c-0.55-0.5-1.41-0.46-1.91,0.09c-11.53,12.71-28.11,24.5-31.98,26.78c-4.51-2.43-21.73-14.31-36.87-29.53
					c-5.87-5.91-12.04-12.93-16.92-20.43h83.59l3.25,8.41c0.23,0.58,0.82,0.94,1.44,0.85c0.62-0.09,1.1-0.59,1.16-1.21l0.67-7.25
					l2.9,24.53c0.08,0.69,0.65,1.21,1.36,1.19c0.69-0.02,1.26-0.55,1.32-1.23l3.88-45.52l3.88,62.76c0.04,0.7,0.62,1.24,1.32,1.27
					c0.01,0,0.02,0,0.03,0c0.69,0,1.27-0.52,1.34-1.21l4.85-47.83l0.93,4.18c0.14,0.62,0.68,1.06,1.32,1.06h299.2
					c0.75,0,1.35-0.6,1.35-1.35C427.08,61.49,426.48,60.88,425.73,60.88z"/>
				<path class="st39" d="M426.43,60.19H128.31l-2.51-11.28c-0.14-0.65-0.74-1.08-1.4-1.05c-0.66,0.04-1.2,0.55-1.26,1.21
					l-4.02,39.67l-3.99-64.58c-0.04-0.71-0.62-1.26-1.33-1.27c-0.01,0-0.01,0-0.02,0c-0.7,0-1.28,0.54-1.34,1.23l-4.31,50.59
					l-2.84-24.06c-0.08-0.69-0.65-1.16-1.36-1.19c-0.69,0.01-1.26,0.54-1.33,1.22l-1.32,14.26l-1.51-3.91
					c-0.2-0.52-0.7-0.86-1.26-0.86H13.03c-0.23,0-0.44,0.06-0.63,0.16c-6.01-9.98-9.51-20.66-6.9-30.56
					C10.07,12.47,25.96,5.82,39.69,6.91c12.29,0.98,25.33,8.48,26.77,23.04c0.07,0.69,0.65,1.22,1.34,1.22
					c0.69,0,1.27-0.53,1.34-1.22C70.28,18.52,79.36,9.43,92.29,6.8c10.29-2.09,25,0.39,32.58,14.28c5.24,9.59,4.65,15.44,4.64,15.49
					c-0.09,0.74,0.43,1.41,1.17,1.51c0.74,0.09,1.41-0.43,1.51-1.17c0.03-0.27,0.75-6.67-4.95-17.12
					C120.41,7.3,106.49,1.16,91.75,4.16c-11.72,2.38-20.56,9.7-23.93,19.36C63.68,11.45,51.48,5.14,39.91,4.22
					C25.05,3.03,7.85,10.27,2.89,29.1c-9.81,37.21,58.32,83.72,64.35,86.49c0.18,0.08,0.37,0.12,0.56,0.12c0.2,0,0.4-0.04,0.58-0.13
					c2.79-1.34,20.85-13.91,33.37-27.7c0.5-0.55,0.46-1.41-0.09-1.91c-0.55-0.5-1.41-0.46-1.91,0.09
					c-11.53,12.71-28.11,24.5-31.98,26.78c-4.51-2.43-21.73-14.31-36.87-29.53c-5.87-5.91-12.04-12.93-16.92-20.43h83.59l3.25,8.41
					c0.23,0.58,0.82,0.94,1.44,0.85c0.62-0.09,1.1-0.59,1.16-1.21l0.67-7.25l2.9,24.53c0.08,0.69,0.65,1.18,1.36,1.19
					c0.69-0.01,1.26-0.55,1.32-1.23l3.88-45.52l3.88,62.76c0.04,0.7,0.62,1.25,1.32,1.27c0.01,0,0.02,0,0.03,0
					c0.69,0,1.27-0.52,1.34-1.21l4.85-47.83l0.93,4.18c0.14,0.62,0.68,1.06,1.32,1.06h299.2c0.75,0,1.35-0.6,1.35-1.35
					S427.17,60.19,426.43,60.19z"/>
			</g>
			<path class="st40" d="M426.43,60.19H128.31l-2.51-11.28c-0.14-0.65-0.74-1.08-1.4-1.05c-0.66,0.04-1.2,0.55-1.26,1.21
				l-4.02,39.67l-3.99-64.58c-0.04-0.71-0.62-1.26-1.33-1.27c-0.01,0-0.01,0-0.02,0c-0.7,0-1.28,0.54-1.34,1.23l-4.31,50.59
				l-2.84-24.06c-0.08-0.69-0.65-1.16-1.36-1.19c-0.69,0.01-1.26,0.54-1.33,1.22l-1.32,14.26l-1.51-3.91
				c-0.2-0.52-0.7-0.86-1.26-0.86H13.03c-0.23,0-0.44,0.06-0.63,0.16c-6.01-9.98-9.51-20.66-6.9-30.56
				C10.07,12.47,25.96,5.82,39.69,6.91c12.29,0.98,25.33,8.48,26.77,23.04c0.07,0.69,0.65,1.22,1.34,1.22
				c0.69,0,1.27-0.53,1.34-1.22C70.28,18.52,79.36,9.43,92.29,6.8c10.29-2.09,25,0.39,32.58,14.28c5.24,9.59,4.65,15.44,4.64,15.49
				c-0.09,0.74,0.43,1.41,1.17,1.51c0.74,0.09,1.41-0.43,1.51-1.17c0.03-0.27,0.75-6.67-4.95-17.12
				C120.41,7.3,106.49,1.16,91.75,4.16c-11.72,2.38-20.56,9.7-23.93,19.36C63.68,11.45,51.48,5.14,39.91,4.22
				C25.05,3.03,7.85,10.27,2.89,29.1c-9.81,37.21,58.32,83.72,64.35,86.49c0.18,0.08,0.37,0.12,0.56,0.12c0.2,0,0.4-0.04,0.58-0.13
				c2.79-1.34,20.85-13.91,33.37-27.7c0.5-0.55,0.46-1.41-0.09-1.91c-0.55-0.5-1.41-0.46-1.91,0.09
				c-11.53,12.71-28.11,24.5-31.98,26.78c-4.51-2.43-21.73-14.31-36.87-29.53c-5.87-5.91-12.04-12.93-16.92-20.43h83.59l3.25,8.41
				c0.23,0.58,0.82,0.94,1.44,0.85c0.62-0.09,1.1-0.59,1.16-1.21l0.67-7.25l2.9,24.53c0.08,0.69,0.65,1.18,1.36,1.19
				c0.69-0.01,1.26-0.55,1.32-1.23l3.88-45.52l3.88,62.76c0.04,0.7,0.62,1.25,1.32,1.27c0.01,0,0.02,0,0.03,0
				c0.69,0,1.27-0.52,1.34-1.21l4.85-47.83l0.93,4.18c0.14,0.62,0.68,1.06,1.32,1.06h299.2c0.75,0,1.35-0.6,1.35-1.35
				S427.17,60.19,426.43,60.19z"/>
		</g>
	</g>
	<g>
		<g>
			<path class="st40" d="M168.22,92.38l-0.04-8.02l-3.89,6.53h-1.9l-3.87-6.31v7.8h-3.95V77.26h3.52l5.32,8.73l5.19-8.73h3.52
				l0.04,15.13H168.22z"/>
			<path class="st40" d="M187.97,89.08v3.31h-12.14V77.26h11.86v3.31h-7.63v2.55h6.72v3.2h-6.72v2.77H187.97z"/>
			<path class="st40" d="M191,77.26h7.15c1.66,0,3.13,0.31,4.41,0.93c1.28,0.62,2.28,1.5,2.98,2.64c0.71,1.14,1.06,2.47,1.06,4
				c0,1.53-0.35,2.86-1.06,4c-0.71,1.14-1.7,2.02-2.98,2.64c-1.28,0.62-2.75,0.93-4.41,0.93H191V77.26z M197.97,88.97
				c1.3,0,2.34-0.37,3.12-1.1c0.78-0.73,1.18-1.75,1.18-3.05s-0.39-2.31-1.18-3.05c-0.79-0.73-1.83-1.1-3.12-1.1h-2.7v8.3H197.97z"
				/>
			<path class="st40" d="M209.49,77.26h4.28v15.13h-4.28V77.26z"/>
			<path class="st40" d="M220.74,91.68c-1.26-0.67-2.25-1.6-2.97-2.8c-0.72-1.2-1.08-2.55-1.08-4.06c0-1.51,0.36-2.87,1.08-4.06
				c0.72-1.2,1.71-2.13,2.97-2.8c1.26-0.67,2.68-1,4.27-1c1.38,0,2.63,0.25,3.74,0.73c1.11,0.49,2.03,1.2,2.77,2.12l-2.72,2.46
				c-0.98-1.18-2.17-1.77-3.57-1.77c-0.82,0-1.55,0.18-2.19,0.54c-0.64,0.36-1.14,0.87-1.49,1.52c-0.35,0.66-0.53,1.41-0.53,2.26
				s0.18,1.6,0.53,2.26c0.35,0.66,0.85,1.16,1.49,1.52c0.64,0.36,1.37,0.54,2.19,0.54c1.4,0,2.59-0.59,3.57-1.77l2.72,2.46
				c-0.73,0.92-1.66,1.63-2.77,2.12c-1.11,0.49-2.35,0.73-3.74,0.73C223.42,92.69,222,92.35,220.74,91.68z"/>
			<path class="st40" d="M243.93,89.44h-6.4l-1.19,2.94h-4.36l6.68-15.13h4.21l6.7,15.13h-4.45L243.93,89.44z M242.68,86.29
				l-1.94-4.84l-1.94,4.84H242.68z"/>
			<path class="st40" d="M251.43,77.26h4.28v11.73h7.22v3.39h-11.5V77.26z"/>
		</g>
		<g>
			<path class="st40" d="M156.53,101.16h-2.22v-5.08h1.97c0.34,0,0.64,0.04,0.89,0.12c0.25,0.08,0.44,0.19,0.56,0.33
				c0.23,0.26,0.34,0.56,0.34,0.89c0,0.4-0.13,0.69-0.38,0.89c-0.09,0.07-0.15,0.11-0.18,0.13c-0.03,0.02-0.09,0.04-0.18,0.08
				c0.31,0.07,0.56,0.21,0.75,0.42c0.19,0.22,0.28,0.48,0.28,0.8c0,0.35-0.12,0.67-0.36,0.94
				C157.72,101.01,157.23,101.16,156.53,101.16z M155.44,98.14h0.54c0.31,0,0.55-0.03,0.7-0.1c0.15-0.07,0.23-0.21,0.23-0.44
				c0-0.23-0.07-0.37-0.21-0.45c-0.14-0.07-0.38-0.11-0.71-0.11h-0.54V98.14z M155.44,100.2h0.78c0.32,0,0.57-0.04,0.73-0.12
				c0.16-0.08,0.24-0.24,0.24-0.47c0-0.23-0.09-0.39-0.26-0.46c-0.17-0.08-0.45-0.11-0.82-0.11h-0.67V100.2z"/>
			<path class="st40" d="M166.57,101.16l-0.47-1.1h-2.13l-0.47,1.1h-1.21l2.19-5.08h1.1l2.19,5.08H166.57z M165.04,97.6l-0.64,1.47
				h1.27L165.04,97.6z"/>
			<path class="st40" d="M174.4,100.16c0.56,0,1.01-0.22,1.37-0.66l0.73,0.75c-0.58,0.65-1.25,0.97-2.04,0.97
				c-0.78,0-1.43-0.25-1.93-0.74c-0.51-0.49-0.76-1.12-0.76-1.87c0-0.75,0.26-1.38,0.77-1.88c0.52-0.5,1.15-0.75,1.89-0.75
				c0.83,0,1.53,0.32,2.09,0.95l-0.7,0.8c-0.36-0.45-0.8-0.67-1.34-0.67c-0.43,0-0.79,0.14-1.09,0.42c-0.3,0.28-0.45,0.65-0.45,1.12
				c0,0.47,0.14,0.85,0.43,1.14C173.65,100.02,173.99,100.16,174.4,100.16z"/>
			<path class="st40" d="M181.09,96.09h1.13v2.08l1.92-2.08h1.4l-2.02,2.24c0.17,0.24,0.5,0.69,0.97,1.35
				c0.47,0.66,0.82,1.15,1.05,1.48h-1.32l-1.49-2l-0.51,0.57v1.44h-1.13V96.09z"/>
			<path class="st40" d="M193.24,98.58h1.14v1.8c-0.5,0.56-1.2,0.84-2.09,0.84c-0.75,0-1.37-0.25-1.88-0.74
				c-0.51-0.49-0.76-1.12-0.76-1.87c0-0.75,0.26-1.38,0.77-1.88c0.52-0.5,1.14-0.75,1.87-0.75c0.73,0,1.36,0.24,1.9,0.72l-0.59,0.85
				c-0.23-0.2-0.44-0.34-0.63-0.41c-0.19-0.08-0.4-0.11-0.62-0.11c-0.43,0-0.79,0.15-1.09,0.44s-0.44,0.68-0.44,1.16
				c0,0.48,0.14,0.86,0.42,1.15c0.28,0.29,0.62,0.43,1.01,0.43s0.72-0.07,0.98-0.23V98.58z"/>
			<path class="st40" d="M203.21,97.77c0,0.81-0.32,1.34-0.97,1.58l1.29,1.82h-1.39l-1.12-1.62h-0.78v1.62h-1.13v-5.08h1.92
				c0.79,0,1.35,0.13,1.69,0.4C203.04,96.75,203.21,97.18,203.21,97.77z M201.84,98.38c0.14-0.13,0.21-0.33,0.21-0.6
				c0-0.27-0.07-0.46-0.22-0.56c-0.15-0.1-0.4-0.15-0.76-0.15h-0.85v1.5h0.83C201.44,98.56,201.7,98.5,201.84,98.38z"/>
			<path class="st40" d="M212.29,100.46c-0.51,0.5-1.14,0.75-1.9,0.75c-0.75,0-1.38-0.25-1.89-0.75c-0.51-0.5-0.77-1.12-0.77-1.87
				s0.26-1.37,0.77-1.87s1.14-0.75,1.89-0.75c0.75,0,1.38,0.25,1.9,0.75c0.51,0.5,0.77,1.12,0.77,1.87S212.81,99.96,212.29,100.46z
				 M211.91,98.6c0-0.45-0.14-0.84-0.44-1.16c-0.29-0.32-0.65-0.48-1.07-0.48c-0.42,0-0.78,0.16-1.07,0.48
				c-0.29,0.32-0.44,0.71-0.44,1.16c0,0.45,0.15,0.84,0.44,1.15c0.29,0.32,0.65,0.48,1.07,0.48c0.42,0,0.78-0.16,1.07-0.48
				C211.76,99.43,211.91,99.05,211.91,98.6z"/>
			<path class="st40" d="M219.07,99.85c0.19,0.23,0.44,0.35,0.76,0.35c0.32,0,0.57-0.12,0.76-0.35c0.19-0.23,0.28-0.56,0.28-0.96
				v-2.8H222v2.84c0,0.74-0.2,1.3-0.61,1.7c-0.41,0.39-0.93,0.59-1.56,0.59c-0.63,0-1.16-0.2-1.56-0.6
				c-0.41-0.4-0.61-0.96-0.61-1.69v-2.84h1.13v2.8C218.78,99.3,218.88,99.62,219.07,99.85z"/>
			<path class="st40" d="M230.43,96.09h1.13v5.08h-1.13l-2.42-3.18v3.18h-1.13v-5.08h1.06l2.49,3.27V96.09z"/>
			<path class="st40" d="M240.39,96.75c0.48,0.44,0.73,1.06,0.73,1.85c0,0.79-0.24,1.41-0.71,1.87c-0.47,0.46-1.19,0.69-2.16,0.69
				h-1.74v-5.08h1.79C239.21,96.09,239.91,96.31,240.39,96.75z M239.56,99.77c0.28-0.26,0.42-0.64,0.42-1.14
				c0-0.5-0.14-0.88-0.42-1.15c-0.28-0.27-0.71-0.4-1.28-0.4h-0.63v3.09h0.72C238.88,100.16,239.28,100.03,239.56,99.77z"/>
		</g>
	</g>
</g>
</svg>
